Benzinova-B1.ufo
<glyph name="plus" format="1">
  <advance width="725"/>
  <unicode hex="002B"/>
  <outline>
    <contour>
      <point x="347" y="203" type="line"/>
      <point x="347" y="194"/>
      <point x="354" y="187"/>
      <point x="363" y="187" type="curve" smooth="yes"/>
      <point x="372" y="187"/>
      <point x="379" y="194"/>
      <point x="379" y="203" type="curve" smooth="yes"/>
      <point x="379" y="649" type="line" smooth="yes"/>
      <point x="379" y="658"/>
      <point x="372" y="665"/>
      <point x="363" y="665" type="curve" smooth="yes"/>
      <point x="354" y="665"/>
      <point x="347" y="658"/>
      <point x="347" y="649" type="curve" smooth="yes"/>
    </contour>
    <contour>
      <point x="586" y="410" type="line"/>
      <point x="595" y="410"/>
      <point x="602" y="417"/>
      <point x="602" y="426" type="curve" smooth="yes"/>
      <point x="602" y="435"/>
      <point x="595" y="442"/>
      <point x="586" y="442" type="curve" smooth="yes"/>
      <point x="139" y="442" type="line" smooth="yes"/>
      <point x="130" y="442"/>
      <point x="123" y="435"/>
      <point x="123" y="426" type="curve" smooth="yes"/>
      <point x="123" y="417"/>
      <point x="130" y="410"/>
      <point x="139" y="410" type="curve" smooth="yes"/>
    </contour>
  </outline>
</glyph>
<glyph name="hyphen" format="1">
  <advance width="427"/>
  <unicode hex="002D"/>
  <outline>
    <contour>
      <point x="331" y="418" type="line"/>
      <point x="340" y="418"/>
      <point x="347" y="426"/>
      <point x="347" y="434" type="curve" smooth="yes"/>
      <point x="347" y="444"/>
      <point x="340" y="450"/>
      <point x="331" y="450" type="curve" smooth="yes"/>
      <point x="96" y="450" type="line" smooth="yes"/>
      <point x="88" y="450"/>
      <point x="80" y="444"/>
      <point x="80" y="434" type="curve" smooth="yes"/>
      <point x="80" y="426"/>
      <point x="88" y="418"/>
      <point x="96" y="418" type="curve" smooth="yes"/>
    </contour>
  </outline>
</glyph>
<glyph name="zero" format="1">
  <advance width="728.0"/>
  <unicode hex="0030"/>
  <outline>
    <contour>
      <point x="648" y="943" type="line"/>
      <point x="648" y="1099"/>
      <point x="520" y="1227"/>
      <point x="364" y="1227" type="curve" smooth="yes"/>
      <point x="207" y="1227"/>
      <point x="80" y="1099"/>
      <point x="80" y="943" type="curve" smooth="yes"/>
      <point x="80" y="257" type="line" smooth="yes"/>
      <point x="80" y="101"/>
      <point x="207" y="-27"/>
      <point x="364" y="-27" type="curve" smooth="yes"/>
      <point x="520" y="-27"/>
      <point x="648" y="101"/>
      <point x="648" y="257" type="curve" smooth="yes"/>
    </contour>
    <contour>
      <point x="616" y="943" type="curve" smooth="yes"/>
      <point x="616" y="257" type="line" smooth="yes"/>
      <point x="616" y="119"/>
      <point x="502" y="5"/>
      <point x="364" y="5" type="curve" smooth="yes"/>
      <point x="225" y="5"/>
      <point x="112" y="119"/>
      <point x="112" y="257" type="curve" smooth="yes"/>
      <point x="112" y="943" type="line" smooth="yes"/>
      <point x="112" y="1081"/>
      <point x="225" y="1195"/>
      <point x="364" y="1195" type="curve" smooth="yes"/>
      <point x="502" y="1195"/>
      <point x="616" y="1081"/>
    </contour>
    <contour>
      <point x="87" y="279" type="line"/>
      <point x="82" y="273"/>
      <point x="83" y="263"/>
      <point x="89" y="258" type="curve" smooth="yes"/>
      <point x="96" y="252"/>
      <point x="106" y="253"/>
      <point x="111" y="259" type="curve" smooth="yes"/>
      <point x="641" y="915" type="line" smooth="yes"/>
      <point x="646" y="921"/>
      <point x="645" y="931"/>
      <point x="639" y="936" type="curve" smooth="yes"/>
      <point x="632" y="942"/>
      <point x="622" y="941"/>
      <point x="617" y="935" type="curve" smooth="yes"/>
    </contour>
  </outline>
</glyph>
<glyph name="one" format="1">
  <advance width="728.0"/>
  <unicode hex="0031"/>
  <outline>
    <contour>
      <point x="349" y="16" type="line"/>
      <point x="349" y="7"/>
      <point x="356" y="0"/>
      <point x="365" y="0" type="curve" smooth="yes"/>
      <point x="374" y="0"/>
      <point x="381" y="7"/>
      <point x="381" y="16" type="curve" smooth="yes"/>
      <point x="381" y="1202" type="line" smooth="yes"/>
      <point x="381" y="1223"/>
      <point x="369" y="1229"/>
      <point x="354" y="1213" type="curve" smooth="yes"/>
      <point x="84" y="942" type="line" smooth="yes"/>
      <point x="78" y="936"/>
      <point x="78" y="926"/>
      <point x="84" y="920" type="curve" smooth="yes"/>
      <point x="90" y="914"/>
      <point x="100" y="914"/>
      <point x="106" y="920" type="curve" smooth="yes"/>
      <point x="376" y="1191" type="line"/>
      <point x="349" y="1202" type="line"/>
    </contour>
    <contour>
      <point x="633" y="0" type="line"/>
      <point x="642" y="0"/>
      <point x="649" y="7"/>
      <point x="649" y="16" type="curve" smooth="yes"/>
      <point x="649" y="25"/>
      <point x="642" y="32"/>
      <point x="633" y="32" type="curve" smooth="yes"/>
      <point x="97" y="32" type="line" smooth="yes"/>
      <point x="88" y="32"/>
      <point x="81" y="25"/>
      <point x="81" y="16" type="curve" smooth="yes"/>
      <point x="81" y="7"/>
      <point x="88" y="0"/>
      <point x="97" y="0" type="curve" smooth="yes"/>
    </contour>
  </outline>
</glyph>
<glyph name="two" format="1">
  <advance width="728.0"/>
  <unicode hex="0032"/>
  <outline>
    <contour>
      <point x="632" y="0" type="line"/>
      <point x="641" y="0"/>
      <point x="648" y="7"/>
      <point x="648" y="16" type="curve" smooth="yes"/>
      <point x="648" y="25"/>
      <point x="641" y="32"/>
      <point x="632" y="32" type="curve" smooth="yes"/>
      <point x="96" y="32" type="line"/>
      <point x="112" y="16" type="line"/>
      <point x="112" y="204" type="line" smooth="yes"/>
      <point x="112" y="343"/>
      <point x="225" y="456"/>
      <point x="364" y="456" type="curve" smooth="yes"/>
      <point x="520" y="456"/>
      <point x="648" y="584"/>
      <point x="648" y="740" type="curve" smooth="yes"/>
      <point x="648" y="943" type="line" smooth="yes"/>
      <point x="648" y="1099"/>
      <point x="520" y="1227"/>
      <point x="364" y="1227" type="curve" smooth="yes"/>
      <point x="207" y="1227"/>
      <point x="80" y="1099"/>
      <point x="80" y="943" type="curve" smooth="yes"/>
      <point x="80" y="934"/>
      <point x="87" y="927"/>
      <point x="96" y="927" type="curve" smooth="yes"/>
      <point x="105" y="927"/>
      <point x="112" y="934"/>
      <point x="112" y="943" type="curve" smooth="yes"/>
      <point x="112" y="1081"/>
      <point x="225" y="1195"/>
      <point x="364" y="1195" type="curve" smooth="yes"/>
      <point x="502" y="1195"/>
      <point x="616" y="1081"/>
      <point x="616" y="943" type="curve" smooth="yes"/>
      <point x="616" y="740" type="line" smooth="yes"/>
      <point x="616" y="602"/>
      <point x="502" y="488"/>
      <point x="364" y="488" type="curve" smooth="yes"/>
      <point x="207" y="488"/>
      <point x="80" y="361"/>
      <point x="80" y="204" type="curve" smooth="yes"/>
      <point x="80" y="16" type="line" smooth="yes"/>
      <point x="80" y="7"/>
      <point x="87" y="0"/>
      <point x="96" y="0" type="curve" smooth="yes"/>
    </contour>
  </outline>
</glyph>
<glyph name="three" format="1">
  <advance width="728.0"/>
  <unicode hex="0033"/>
  <outline>
    <contour>
      <point x="420" y="691" type="curve" smooth="yes"/>
      <point x="411" y="689"/>
      <point x="405" y="681"/>
      <point x="406" y="672" type="curve" smooth="yes"/>
      <point x="408" y="664"/>
      <point x="416" y="658"/>
      <point x="425" y="659" type="curve" smooth="yes"/>
      <point x="547" y="676"/>
      <point x="642" y="783"/>
      <point x="642" y="910" type="curve" smooth="yes"/>
      <point x="642" y="973" type="line" smooth="yes"/>
      <point x="642" y="1113"/>
      <point x="528" y="1227"/>
      <point x="388" y="1227" type="curve" smooth="yes"/>
      <point x="340" y="1227" type="line" smooth="yes"/>
      <point x="200" y="1227"/>
      <point x="86" y="1113"/>
      <point x="86" y="973" type="curve" smooth="yes"/>
      <point x="86" y="964"/>
      <point x="93" y="957"/>
      <point x="102" y="957" type="curve" smooth="yes"/>
      <point x="111" y="957"/>
      <point x="118" y="964"/>
      <point x="118" y="973" type="curve" smooth="yes"/>
      <point x="118" y="1095"/>
      <point x="218" y="1195"/>
      <point x="340" y="1195" type="curve" smooth="yes"/>
      <point x="388" y="1195" type="line" smooth="yes"/>
      <point x="510" y="1195"/>
      <point x="610" y="1095"/>
      <point x="610" y="973" type="curve" smooth="yes"/>
      <point x="610" y="910" type="line" smooth="yes"/>
      <point x="610" y="799"/>
      <point x="527" y="706"/>
    </contour>
    <contour>
      <point x="111" y="234" type="curve" smooth="yes"/>
      <point x="111" y="243"/>
      <point x="104" y="250"/>
      <point x="95" y="250" type="curve" smooth="yes"/>
      <point x="86" y="250"/>
      <point x="79" y="243"/>
      <point x="79" y="234" type="curve" smooth="yes"/>
      <point x="79" y="91"/>
      <point x="196" y="-27"/>
      <point x="340" y="-27" type="curve" smooth="yes"/>
      <point x="388" y="-27" type="line" smooth="yes"/>
      <point x="531" y="-27"/>
      <point x="649" y="91"/>
      <point x="649" y="234" type="curve" smooth="yes"/>
      <point x="649" y="428" type="line" smooth="yes"/>
      <point x="649" y="567"/>
      <point x="538" y="681"/>
      <point x="401" y="687" type="curve" smooth="yes"/>
      <point x="392" y="688"/>
      <point x="385" y="681"/>
      <point x="384" y="672" type="curve" smooth="yes"/>
      <point x="384" y="663"/>
      <point x="391" y="656"/>
      <point x="400" y="655" type="curve" smooth="yes"/>
      <point x="519" y="650"/>
      <point x="617" y="550"/>
      <point x="617" y="428" type="curve" smooth="yes"/>
      <point x="617" y="234" type="line" smooth="yes"/>
      <point x="617" y="109"/>
      <point x="513" y="5"/>
      <point x="388" y="5" type="curve" smooth="yes"/>
      <point x="340" y="5" type="line" smooth="yes"/>
      <point x="214" y="5"/>
      <point x="111" y="109"/>
    </contour>
  </outline>
</glyph>
<glyph name="five" format="1">
  <advance width="728.0"/>
  <unicode hex="0035"/>
  <outline>
    <contour>
      <point x="112" y="263" type="curve" smooth="yes"/>
      <point x="112" y="272"/>
      <point x="105" y="279"/>
      <point x="96" y="279" type="curve" smooth="yes"/>
      <point x="87" y="279"/>
      <point x="80" y="272"/>
      <point x="80" y="263" type="curve" smooth="yes"/>
      <point x="80" y="107"/>
      <point x="207" y="-21"/>
      <point x="364" y="-21" type="curve" smooth="yes"/>
      <point x="520" y="-21"/>
      <point x="648" y="107"/>
      <point x="648" y="263" type="curve" smooth="yes"/>
      <point x="648" y="465" type="line" smooth="yes"/>
      <point x="648" y="622"/>
      <point x="520" y="749"/>
      <point x="364" y="749" type="curve" smooth="yes"/>
      <point x="97" y="749" type="line"/>
      <point x="113" y="733" type="line"/>
      <point x="112" y="1189" type="line"/>
      <point x="96" y="1173" type="line"/>
      <point x="633" y="1173" type="line" smooth="yes"/>
      <point x="642" y="1173"/>
      <point x="649" y="1180"/>
      <point x="649" y="1189" type="curve" smooth="yes"/>
      <point x="649" y="1198"/>
      <point x="642" y="1205"/>
      <point x="633" y="1205" type="curve" smooth="yes"/>
      <point x="96" y="1205" type="line" smooth="yes"/>
      <point x="87" y="1205"/>
      <point x="80" y="1198"/>
      <point x="80" y="1189" type="curve" smooth="yes"/>
      <point x="81" y="733" type="line" smooth="yes"/>
      <point x="81" y="724"/>
      <point x="88" y="717"/>
      <point x="97" y="717" type="curve" smooth="yes"/>
      <point x="364" y="717" type="line" smooth="yes"/>
      <point x="502" y="717"/>
      <point x="616" y="604"/>
      <point x="616" y="465" type="curve" smooth="yes"/>
      <point x="616" y="263" type="line" smooth="yes"/>
      <point x="616" y="125"/>
      <point x="502" y="11"/>
      <point x="364" y="11" type="curve" smooth="yes"/>
      <point x="225" y="11"/>
      <point x="112" y="125"/>
    </contour>
  </outline>
</glyph>
<glyph name="seven" format="1">
  <advance width="728.0"/>
  <unicode hex="0037"/>
  <outline>
    <contour>
      <point x="96" y="1200" type="line"/>
      <point x="87" y="1200"/>
      <point x="80" y="1193"/>
      <point x="80" y="1184" type="curve" smooth="yes"/>
      <point x="80" y="1175"/>
      <point x="87" y="1168"/>
      <point x="96" y="1168" type="curve" smooth="yes"/>
      <point x="632" y="1168" type="line"/>
      <point x="616" y="1188" type="line"/>
      <point x="342" y="20" type="line" smooth="yes"/>
      <point x="340" y="11"/>
      <point x="346" y="3"/>
      <point x="354" y="0" type="curve" smooth="yes"/>
      <point x="362" y="-1"/>
      <point x="371" y="4"/>
      <point x="373" y="12" type="curve" smooth="yes"/>
      <point x="648" y="1180" type="line" smooth="yes"/>
      <point x="650" y="1192"/>
      <point x="643" y="1200"/>
      <point x="632" y="1200" type="curve" smooth="yes"/>
    </contour>
  </outline>
</glyph>
<glyph name="less" format="1">
  <advance width="674"/>
  <unicode hex="003C"/>
  <outline>
    <contour>
      <point x="568" y="-10" type="line"/>
      <point x="574" y="-15"/>
      <point x="584" y="-15"/>
      <point x="590" y="-8" type="curve" smooth="yes"/>
      <point x="596" y="-2"/>
      <point x="595" y="8"/>
      <point x="589" y="14" type="curve" smooth="yes"/>
      <point x="103" y="438" type="line"/>
      <point x="103" y="414" type="line"/>
      <point x="587" y="836" type="line" smooth="yes"/>
      <point x="593" y="842"/>
      <point x="594" y="852"/>
      <point x="588" y="858" type="curve" smooth="yes"/>
      <point x="582" y="865"/>
      <point x="572" y="865"/>
      <point x="566" y="860" type="curve" smooth="yes"/>
      <point x="82" y="438" type="line" smooth="yes"/>
      <point x="74" y="431"/>
      <point x="74" y="421"/>
      <point x="82" y="414" type="curve" smooth="yes"/>
    </contour>
  </outline>
</glyph>
<glyph name="equal" format="1">
  <advance width="728.0"/>
  <unicode hex="003D"/>
  <outline>
    <contour>
      <point x="589" y="286" type="line"/>
      <point x="597" y="286"/>
      <point x="605" y="294"/>
      <point x="605" y="302" type="curve" smooth="yes"/>
      <point x="605" y="310"/>
      <point x="597" y="318"/>
      <point x="589" y="318" type="curve" smooth="yes"/>
      <point x="139" y="318" type="line" smooth="yes"/>
      <point x="131" y="318"/>
      <point x="123" y="310"/>
      <point x="123" y="302" type="curve" smooth="yes"/>
      <point x="123" y="294"/>
      <point x="131" y="286"/>
      <point x="139" y="286" type="curve" smooth="yes"/>
    </contour>
    <contour>
      <point x="589" y="526" type="line"/>
      <point x="597" y="526"/>
      <point x="605" y="534"/>
      <point x="605" y="542" type="curve" smooth="yes"/>
      <point x="605" y="550"/>
      <point x="597" y="558"/>
      <point x="589" y="558" type="curve" smooth="yes"/>
      <point x="139" y="558" type="line" smooth="yes"/>
      <point x="131" y="558"/>
      <point x="123" y="550"/>
      <point x="123" y="542" type="curve" smooth="yes"/>
      <point x="123" y="534"/>
      <point x="131" y="526"/>
      <point x="139" y="526" type="curve" smooth="yes"/>
    </contour>
  </outline>
</glyph>
<glyph name="question" format="1">
  <advance width="775"/>
  <unicode hex="003F"/>
  <outline>
    <contour>
      <point x="388" y="-4" type="curve" smooth="yes"/>
      <point x="400" y="-4"/>
      <point x="412" y="8"/>
      <point x="412" y="20" type="curve" smooth="yes"/>
      <point x="412" y="32"/>
      <point x="400" y="44"/>
      <point x="388" y="44" type="curve" smooth="yes"/>
      <point x="376" y="44"/>
      <point x="364" y="32"/>
      <point x="364" y="20" type="curve" smooth="yes"/>
      <point x="364" y="8"/>
      <point x="376" y="-4"/>
    </contour>
    <contour>
      <point x="372" y="249" type="line"/>
      <point x="372" y="240"/>
      <point x="379" y="233"/>
      <point x="388" y="233" type="curve" smooth="yes"/>
      <point x="397" y="233"/>
      <point x="404" y="240"/>
      <point x="404" y="249" type="curve" smooth="yes"/>
      <point x="404" y="522" type="line"/>
      <point x="388" y="506" type="line"/>
      <point x="557" y="506"/>
      <point x="695" y="644"/>
      <point x="695" y="814" type="curve" smooth="yes"/>
      <point x="695" y="924" type="line" smooth="yes"/>
      <point x="695" y="1094"/>
      <point x="557" y="1232"/>
      <point x="388" y="1232" type="curve" smooth="yes"/>
      <point x="218" y="1232"/>
      <point x="80" y="1094"/>
      <point x="80" y="924" type="curve" smooth="yes"/>
      <point x="80" y="915"/>
      <point x="87" y="908"/>
      <point x="96" y="908" type="curve" smooth="yes"/>
      <point x="105" y="908"/>
      <point x="112" y="915"/>
      <point x="112" y="924" type="curve" smooth="yes"/>
      <point x="112" y="1076"/>
      <point x="236" y="1200"/>
      <point x="388" y="1200" type="curve" smooth="yes"/>
      <point x="539" y="1200"/>
      <point x="663" y="1076"/>
      <point x="663" y="924" type="curve" smooth="yes"/>
      <point x="663" y="814" type="line" smooth="yes"/>
      <point x="663" y="662"/>
      <point x="539" y="538"/>
      <point x="388" y="538" type="curve" smooth="yes"/>
      <point x="379" y="538"/>
      <point x="372" y="531"/>
      <point x="372" y="522" type="curve" smooth="yes"/>
    </contour>
  </outline>
</glyph>
<glyph name="B" format="1">
  <advance width="900.0"/>
  <unicode hex="0042"/>
  <outline>
    <contour>
      <point x="109" y="637" type="line"/>
      <point x="109" y="669" type="line"/>
      <point x="506" y="669" type="line" smooth="yes"/>
      <point x="691" y="669"/>
      <point x="827" y="533"/>
      <point x="827" y="348" type="curve" smooth="yes"/>
      <point x="827" y="163"/>
      <point x="690" y="0"/>
      <point x="506" y="0" type="curve" smooth="yes"/>
      <point x="96" y="0" type="line" smooth="yes"/>
      <point x="87" y="0"/>
      <point x="80" y="7"/>
      <point x="80" y="16" type="curve" smooth="yes"/>
      <point x="80" y="1184" type="line" smooth="yes"/>
      <point x="80" y="1193"/>
      <point x="87" y="1200"/>
      <point x="96" y="1200" type="curve" smooth="yes"/>
      <point x="406" y="1200" type="line" smooth="yes"/>
      <point x="558" y="1200"/>
      <point x="668" y="1090"/>
      <point x="668" y="938" type="curve" smooth="yes"/>
      <point x="668" y="925" type="line" smooth="yes"/>
      <point x="668" y="773"/>
      <point x="557" y="637"/>
      <point x="406" y="637" type="curve" smooth="yes"/>
    </contour>
    <contour>
      <point x="109" y="669" type="line"/>
      <point x="406" y="669" type="line" smooth="yes"/>
      <point x="541" y="669"/>
      <point x="636" y="791"/>
      <point x="636" y="925" type="curve" smooth="yes"/>
      <point x="636" y="938" type="line" smooth="yes"/>
      <point x="636" y="1072"/>
      <point x="540" y="1168"/>
      <point x="406" y="1168" type="curve" smooth="yes"/>
      <point x="96" y="1168" type="line"/>
      <point x="112" y="1184" type="line"/>
      <point x="112" y="16" type="line"/>
      <point x="96" y="32" type="line"/>
      <point x="506" y="32" type="line" smooth="yes"/>
      <point x="674" y="32"/>
      <point x="795" y="181"/>
      <point x="795" y="348" type="curve" smooth="yes"/>
      <point x="795" y="515"/>
      <point x="673" y="637"/>
      <point x="506" y="637" type="curve" smooth="yes"/>
      <point x="109" y="637" type="line"/>
    </contour>
  </outline>
</glyph>
<glyph name="H" format="1">
  <advance width="864.0"/>
  <unicode hex="0048"/>
  <outline>
    <contour>
      <point x="80" y="16" type="line"/>
      <point x="80" y="7"/>
      <point x="87" y="0"/>
      <point x="96" y="0" type="curve" smooth="yes"/>
      <point x="105" y="0"/>
      <point x="112" y="7"/>
      <point x="112" y="16" type="curve" smooth="yes"/>
      <point x="112" y="1184" type="line" smooth="yes"/>
      <point x="112" y="1193"/>
      <point x="105" y="1200"/>
      <point x="96" y="1200" type="curve" smooth="yes"/>
      <point x="87" y="1200"/>
      <point x="80" y="1193"/>
      <point x="80" y="1184" type="curve" smooth="yes"/>
    </contour>
    <contour>
      <point x="747" y="16" type="line"/>
      <point x="747" y="7"/>
      <point x="754" y="0"/>
      <point x="763" y="0" type="curve" smooth="yes"/>
      <point x="772" y="0"/>
      <point x="779" y="7"/>
      <point x="779" y="16" type="curve" smooth="yes"/>
      <point x="779" y="1184" type="line" smooth="yes"/>
      <point x="779" y="1193"/>
      <point x="772" y="1200"/>
      <point x="763" y="1200" type="curve" smooth="yes"/>
      <point x="754" y="1200"/>
      <point x="747" y="1193"/>
      <point x="747" y="1184" type="curve" smooth="yes"/>
    </contour>
    <contour>
      <point x="97" y="563" type="line"/>
      <point x="88" y="563"/>
      <point x="81" y="556"/>
      <point x="81" y="547" type="curve" smooth="yes"/>
      <point x="81" y="538"/>
      <point x="88" y="531"/>
      <point x="97" y="531" type="curve" smooth="yes"/>
      <point x="763" y="531" type="line" smooth="yes"/>
      <point x="772" y="531"/>
      <point x="779" y="538"/>
      <point x="779" y="547" type="curve" smooth="yes"/>
      <point x="779" y="556"/>
      <point x="772" y="563"/>
      <point x="763" y="563" type="curve" smooth="yes"/>
    </contour>
  </outline>
</glyph>
<glyph name="K" format="1">
  <advance width="917"/>
  <unicode hex="004B"/>
  <note>
  </note>
  <outline>
    <contour>
      <point x="80" y="16" type="line"/>
      <point x="80" y="7"/>
      <point x="87" y="0"/>
      <point x="96" y="0" type="curve" smooth="yes"/>
      <point x="105" y="0"/>
      <point x="112" y="7"/>
      <point x="112" y="16" type="curve" smooth="yes"/>
      <point x="112" y="1184" type="line" smooth="yes"/>
      <point x="112" y="1193"/>
      <point x="105" y="1200"/>
      <point x="96" y="1200" type="curve" smooth="yes"/>
      <point x="87" y="1200"/>
      <point x="80" y="1193"/>
      <point x="80" y="1184" type="curve" smooth="yes"/>
    </contour>
    <contour>
      <point x="809" y="5" type="line"/>
      <point x="814" y="-1"/>
      <point x="825" y="-1"/>
      <point x="831" y="5" type="curve" smooth="yes"/>
      <point x="837" y="10"/>
      <point x="837" y="21"/>
      <point x="831" y="27" type="curve" smooth="yes"/>
      <point x="174" y="665" type="line" smooth="yes"/>
      <point x="168" y="670"/>
      <point x="157" y="671"/>
      <point x="151" y="665" type="curve" smooth="yes"/>
      <point x="146" y="659"/>
      <point x="145" y="649"/>
      <point x="151" y="642" type="curve" smooth="yes"/>
    </contour>
    <contour>
      <point x="830" y="1172" type="line"/>
      <point x="836" y="1177"/>
      <point x="837" y="1187"/>
      <point x="832" y="1194" type="curve" smooth="yes"/>
      <point x="827" y="1200"/>
      <point x="817" y="1201"/>
      <point x="810" y="1196" type="curve" smooth="yes"/>
      <point x="90" y="632" type="line" smooth="yes"/>
      <point x="84" y="627"/>
      <point x="83" y="617"/>
      <point x="88" y="610" type="curve" smooth="yes"/>
      <point x="93" y="604"/>
      <point x="103" y="603"/>
      <point x="110" y="608" type="curve" smooth="yes"/>
    </contour>
  </outline>
</glyph>
<glyph name="M" format="1">
  <advance width="859"/>
  <unicode hex="004D"/>
  <outline>
    <contour>
      <point x="80" y="16" type="line"/>
      <point x="80" y="7"/>
      <point x="87" y="0"/>
      <point x="96" y="0" type="curve" smooth="yes"/>
      <point x="105" y="0"/>
      <point x="112" y="7"/>
      <point x="112" y="16" type="curve" smooth="yes"/>
      <point x="112" y="1200" type="line"/>
      <point x="82" y="1192" type="line"/>
      <point x="416" y="636" type="line" smooth="yes"/>
      <point x="422" y="623"/>
      <point x="437" y="623"/>
      <point x="443" y="636" type="curve" smooth="yes"/>
      <point x="776" y="1192" type="line"/>
      <point x="747" y="1200" type="line"/>
      <point x="747" y="16" type="line" smooth="yes"/>
      <point x="747" y="7"/>
      <point x="754" y="0"/>
      <point x="763" y="0" type="curve" smooth="yes"/>
      <point x="772" y="0"/>
      <point x="779" y="7"/>
      <point x="779" y="16" type="curve" smooth="yes"/>
      <point x="779" y="1200" type="line" smooth="yes"/>
      <point x="779" y="1218"/>
      <point x="757" y="1223"/>
      <point x="749" y="1208" type="curve" smooth="yes"/>
      <point x="416" y="651" type="line"/>
      <point x="443" y="651" type="line"/>
      <point x="110" y="1208" type="line" smooth="yes"/>
      <point x="101" y="1223"/>
      <point x="80" y="1218"/>
      <point x="80" y="1200" type="curve" smooth="yes"/>
    </contour>
  </outline>
</glyph>
<glyph name="N" format="1">
  <advance width="869"/>
  <unicode hex="004E"/>
  <outline>
    <contour>
      <point x="80" y="16" type="line"/>
      <point x="80" y="7"/>
      <point x="87" y="0"/>
      <point x="96" y="0" type="curve" smooth="yes"/>
      <point x="105" y="0"/>
      <point x="112" y="7"/>
      <point x="112" y="16" type="curve" smooth="yes"/>
      <point x="112" y="1184" type="line"/>
      <point x="82" y="1176" type="line"/>
      <point x="760" y="8" type="line" smooth="yes"/>
      <point x="768" y="-7"/>
      <point x="789" y="-2"/>
      <point x="789" y="16" type="curve" smooth="yes"/>
      <point x="789" y="1184" type="line" smooth="yes"/>
      <point x="789" y="1193"/>
      <point x="782" y="1200"/>
      <point x="773" y="1200" type="curve" smooth="yes"/>
      <point x="764" y="1200"/>
      <point x="757" y="1193"/>
      <point x="757" y="1184" type="curve" smooth="yes"/>
      <point x="757" y="16" type="line"/>
      <point x="787" y="24" type="line"/>
      <point x="110" y="1192" type="line" smooth="yes"/>
      <point x="101" y="1207"/>
      <point x="80" y="1202"/>
      <point x="80" y="1184" type="curve" smooth="yes"/>
    </contour>
  </outline>
</glyph>
<glyph name="O" format="1">
  <advance width="859.0"/>
  <unicode hex="004F"/>
  <outline>
    <contour>
      <point x="430" y="-32" type="curve" smooth="yes"/>
      <point x="622" y="-32"/>
      <point x="779" y="125"/>
      <point x="779" y="318" type="curve" smooth="yes"/>
      <point x="779" y="877" type="line" smooth="yes"/>
      <point x="779" y="1070"/>
      <point x="622" y="1227"/>
      <point x="430" y="1227" type="curve" smooth="yes"/>
      <point x="237" y="1227"/>
      <point x="80" y="1070"/>
      <point x="80" y="877" type="curve" smooth="yes"/>
      <point x="80" y="318" type="line" smooth="yes"/>
      <point x="80" y="125"/>
      <point x="237" y="-32"/>
    </contour>
    <contour>
      <point x="430" y="1195" type="curve" smooth="yes"/>
      <point x="604" y="1195"/>
      <point x="747" y="1052"/>
      <point x="747" y="877" type="curve" smooth="yes"/>
      <point x="747" y="318" type="line" smooth="yes"/>
      <point x="747" y="143"/>
      <point x="604" y="0"/>
      <point x="430" y="0" type="curve" smooth="yes"/>
      <point x="255" y="0"/>
      <point x="112" y="143"/>
      <point x="112" y="318" type="curve" smooth="yes"/>
      <point x="112" y="877" type="line" smooth="yes"/>
      <point x="112" y="1052"/>
      <point x="255" y="1195"/>
    </contour>
  </outline>
</glyph>
<glyph name="P" format="1">
  <advance width="900.0"/>
  <unicode hex="0050"/>
  <outline>
    <contour>
      <point x="80" y="16" type="line"/>
      <point x="80" y="7"/>
      <point x="87" y="0"/>
      <point x="96" y="0" type="curve" smooth="yes"/>
      <point x="105" y="0"/>
      <point x="112" y="7"/>
      <point x="112" y="16" type="curve" smooth="yes"/>
      <point x="112" y="1184" type="line"/>
      <point x="96" y="1168" type="line"/>
      <point x="457" y="1168" type="line" smooth="yes"/>
      <point x="649" y="1168"/>
      <point x="795" y="1003"/>
      <point x="795" y="813" type="curve" smooth="yes"/>
      <point x="795" y="622"/>
      <point x="648" y="475"/>
      <point x="457" y="475" type="curve" smooth="yes"/>
      <point x="109" y="475" type="line" smooth="yes"/>
      <point x="100" y="475"/>
      <point x="93" y="468"/>
      <point x="93" y="459" type="curve" smooth="yes"/>
      <point x="93" y="450"/>
      <point x="100" y="443"/>
      <point x="109" y="443" type="curve" smooth="yes"/>
      <point x="457" y="443" type="line" smooth="yes"/>
      <point x="666" y="443"/>
      <point x="827" y="604"/>
      <point x="827" y="813" type="curve" smooth="yes"/>
      <point x="827" y="1021"/>
      <point x="665" y="1200"/>
      <point x="457" y="1200" type="curve" smooth="yes"/>
      <point x="96" y="1200" type="line" smooth="yes"/>
      <point x="87" y="1200"/>
      <point x="80" y="1193"/>
      <point x="80" y="1184" type="curve" smooth="yes"/>
    </contour>
  </outline>
</glyph>
<glyph name="Q" format="1">
  <advance width="862"/>
  <unicode hex="0051"/>
  <outline>
    <contour>
      <point x="779" y="877" type="line"/>
      <point x="779" y="1070"/>
      <point x="622" y="1227"/>
      <point x="430" y="1227" type="curve" smooth="yes"/>
      <point x="237" y="1227"/>
      <point x="80" y="1070"/>
      <point x="80" y="877" type="curve" smooth="yes"/>
      <point x="80" y="318" type="line" smooth="yes"/>
      <point x="80" y="125"/>
      <point x="237" y="-32"/>
      <point x="430" y="-32" type="curve" smooth="yes"/>
      <point x="622" y="-32"/>
      <point x="779" y="125"/>
      <point x="779" y="318" type="curve" smooth="yes"/>
    </contour>
    <contour>
      <point x="747" y="877" type="curve" smooth="yes"/>
      <point x="747" y="318" type="line" smooth="yes"/>
      <point x="747" y="143"/>
      <point x="604" y="0"/>
      <point x="430" y="0" type="curve" smooth="yes"/>
      <point x="255" y="0"/>
      <point x="112" y="143"/>
      <point x="112" y="318" type="curve" smooth="yes"/>
      <point x="112" y="877" type="line" smooth="yes"/>
      <point x="112" y="1052"/>
      <point x="255" y="1195"/>
      <point x="430" y="1195" type="curve" smooth="yes"/>
      <point x="604" y="1195"/>
      <point x="747" y="1052"/>
    </contour>
    <contour>
      <point x="592" y="187" type="line"/>
      <point x="586" y="193"/>
      <point x="576" y="193"/>
      <point x="570" y="187" type="curve" smooth="yes"/>
      <point x="564" y="181"/>
      <point x="564" y="171"/>
      <point x="570" y="165" type="curve" smooth="yes"/>
      <point x="760" y="-25" type="line" smooth="yes"/>
      <point x="766" y="-31"/>
      <point x="776" y="-31"/>
      <point x="782" y="-25" type="curve" smooth="yes"/>
      <point x="788" y="-19"/>
      <point x="788" y="-9"/>
      <point x="782" y="-3" type="curve" smooth="yes"/>
    </contour>
  </outline>
</glyph>
<glyph name="T" format="1">
  <advance width="853"/>
  <unicode hex="0054"/>
  <outline>
    <contour>
      <point x="93" y="1200" type="curve" smooth="yes"/>
      <point x="760" y="1200" type="line" smooth="yes"/>
      <point x="769" y="1200"/>
      <point x="776" y="1193"/>
      <point x="776" y="1184" type="curve" smooth="yes"/>
      <point x="776" y="1175"/>
      <point x="769" y="1168"/>
      <point x="760" y="1168" type="curve" smooth="yes"/>
      <point x="93" y="1168" type="line" smooth="yes"/>
      <point x="84" y="1168"/>
      <point x="77" y="1175"/>
      <point x="77" y="1184" type="curve" smooth="yes"/>
      <point x="77" y="1193"/>
      <point x="84" y="1200"/>
    </contour>
    <contour>
      <point x="443" y="1174" type="curve" smooth="yes"/>
      <point x="443" y="16" type="line" smooth="yes"/>
      <point x="443" y="7"/>
      <point x="436" y="0"/>
      <point x="427" y="0" type="curve" smooth="yes"/>
      <point x="418" y="0"/>
      <point x="411" y="7"/>
      <point x="411" y="16" type="curve" smooth="yes"/>
      <point x="411" y="1174" type="line" smooth="yes"/>
      <point x="411" y="1183"/>
      <point x="418" y="1190"/>
      <point x="427" y="1190" type="curve" smooth="yes"/>
      <point x="436" y="1190"/>
      <point x="443" y="1183"/>
    </contour>
  </outline>
</glyph>
<glyph name="V" format="1">
  <advance width="856"/>
  <unicode hex="0056"/>
  <outline>
    <contour>
      <point x="109" y="1188" type="line"/>
      <point x="106" y="1196"/>
      <point x="98" y="1201"/>
      <point x="89" y="1199" type="curve" smooth="yes"/>
      <point x="81" y="1197"/>
      <point x="76" y="1188"/>
      <point x="78" y="1180" type="curve" smooth="yes"/>
      <point x="411" y="-21" type="line" smooth="yes"/>
      <point x="416" y="-37"/>
      <point x="437" y="-37"/>
      <point x="442" y="-21" type="curve" smooth="yes"/>
      <point x="775" y="1180" type="line" smooth="yes"/>
      <point x="777" y="1188"/>
      <point x="772" y="1197"/>
      <point x="764" y="1199" type="curve" smooth="yes"/>
      <point x="756" y="1201"/>
      <point x="747" y="1196"/>
      <point x="745" y="1188" type="curve" smooth="yes"/>
      <point x="411" y="-12" type="line"/>
      <point x="442" y="-12" type="line"/>
    </contour>
  </outline>
</glyph>
<glyph name="X" format="1">
  <advance width="855"/>
  <unicode hex="0058"/>
  <outline>
    <contour>
      <point x="83" y="23" type="line"/>
      <point x="79" y="16"/>
      <point x="81" y="6"/>
      <point x="89" y="2" type="curve" smooth="yes"/>
      <point x="97" y="-2"/>
      <point x="106" y="1"/>
      <point x="110" y="9" type="curve" smooth="yes"/>
      <point x="771" y="1177" type="line" smooth="yes"/>
      <point x="775" y="1184"/>
      <point x="773" y="1194"/>
      <point x="765" y="1198" type="curve" smooth="yes"/>
      <point x="757" y="1202"/>
      <point x="748" y="1199"/>
      <point x="744" y="1191" type="curve" smooth="yes"/>
    </contour>
    <contour>
      <point x="744" y="9" type="line"/>
      <point x="748" y="1"/>
      <point x="757" y="-2"/>
      <point x="765" y="2" type="curve" smooth="yes"/>
      <point x="773" y="6"/>
      <point x="775" y="16"/>
      <point x="771" y="23" type="curve" smooth="yes"/>
      <point x="110" y="1191" type="line" smooth="yes"/>
      <point x="106" y="1199"/>
      <point x="97" y="1202"/>
      <point x="89" y="1198" type="curve" smooth="yes"/>
      <point x="81" y="1194"/>
      <point x="79" y="1184"/>
      <point x="83" y="1177" type="curve" smooth="yes"/>
    </contour>
  </outline>
</glyph>
<glyph name="Y" format="1">
  <advance width="835"/>
  <unicode hex="0059"/>
  <outline>
    <contour>
      <point x="760" y="1178" type="curve" smooth="yes"/>
      <point x="429" y="383" type="line" smooth="yes"/>
      <point x="424" y="369"/>
      <point x="405" y="369"/>
      <point x="400" y="383" type="curve" smooth="yes"/>
      <point x="72" y="1178" type="line" smooth="yes"/>
      <point x="69" y="1186"/>
      <point x="73" y="1195"/>
      <point x="80" y="1198" type="curve" smooth="yes"/>
      <point x="88" y="1202"/>
      <point x="98" y="1198"/>
      <point x="101" y="1190" type="curve" smooth="yes"/>
      <point x="429" y="396" type="line"/>
      <point x="400" y="396" type="line"/>
      <point x="731" y="1190" type="line" smooth="yes"/>
      <point x="734" y="1198"/>
      <point x="744" y="1202"/>
      <point x="752" y="1198" type="curve" smooth="yes"/>
      <point x="759" y="1195"/>
      <point x="763" y="1186"/>
    </contour>
    <contour>
      <point x="399" y="5" type="curve" smooth="yes"/>
      <point x="399" y="389" type="line" smooth="yes"/>
      <point x="399" y="398"/>
      <point x="406" y="405"/>
      <point x="415" y="405" type="curve" smooth="yes"/>
      <point x="424" y="405"/>
      <point x="431" y="398"/>
      <point x="431" y="389" type="curve" smooth="yes"/>
      <point x="431" y="5" type="line" smooth="yes"/>
      <point x="431" y="-4"/>
      <point x="424" y="-11"/>
      <point x="415" y="-11" type="curve" smooth="yes"/>
      <point x="406" y="-11"/>
      <point x="399" y="-4"/>
    </contour>
  </outline>
</glyph>
<glyph name="asciicircum" format="1">
  <advance width="624.0"/>
  <unicode hex="005E"/>
  <outline>
    <contour>
      <point x="160" y="1228" type="line"/>
      <point x="154" y="1222"/>
      <point x="154" y="1212"/>
      <point x="160" y="1206" type="curve" smooth="yes"/>
      <point x="166" y="1200"/>
      <point x="176" y="1200"/>
      <point x="182" y="1206" type="curve" smooth="yes"/>
      <point x="323" y="1349" type="line"/>
      <point x="301" y="1349" type="line"/>
      <point x="442" y="1206" type="line" smooth="yes"/>
      <point x="448" y="1200"/>
      <point x="458" y="1200"/>
      <point x="464" y="1206" type="curve" smooth="yes"/>
      <point x="470" y="1212"/>
      <point x="470" y="1222"/>
      <point x="464" y="1228" type="curve" smooth="yes"/>
      <point x="323" y="1371" type="line" smooth="yes"/>
      <point x="317" y="1378"/>
      <point x="307" y="1378"/>
      <point x="301" y="1371" type="curve" smooth="yes"/>
    </contour>
  </outline>
</glyph>
<glyph name="b" format="1">
  <advance width="775"/>
  <unicode hex="0062"/>
  <outline>
    <contour>
      <point x="80" y="587" type="curve" smooth="yes"/>
      <point x="80" y="578"/>
      <point x="87" y="571"/>
      <point x="96" y="571" type="curve" smooth="yes"/>
      <point x="105" y="571"/>
      <point x="112" y="578"/>
      <point x="112" y="587" type="curve" smooth="yes"/>
      <point x="112" y="739"/>
      <point x="236" y="863"/>
      <point x="388" y="863" type="curve" smooth="yes"/>
      <point x="539" y="863"/>
      <point x="663" y="739"/>
      <point x="663" y="587" type="curve" smooth="yes"/>
      <point x="663" y="292" type="line" smooth="yes"/>
      <point x="663" y="140"/>
      <point x="539" y="16"/>
      <point x="388" y="16" type="curve" smooth="yes"/>
      <point x="236" y="16"/>
      <point x="112" y="140"/>
      <point x="112" y="292" type="curve" smooth="yes"/>
      <point x="112" y="1200" type="line" smooth="yes"/>
      <point x="112" y="1209"/>
      <point x="105" y="1216"/>
      <point x="96" y="1216" type="curve" smooth="yes"/>
      <point x="87" y="1216"/>
      <point x="80" y="1209"/>
      <point x="80" y="1200" type="curve" smooth="yes"/>
      <point x="80" y="292" type="line" smooth="yes"/>
      <point x="80" y="122"/>
      <point x="218" y="-16"/>
      <point x="388" y="-16" type="curve" smooth="yes"/>
      <point x="557" y="-16"/>
      <point x="695" y="122"/>
      <point x="695" y="292" type="curve" smooth="yes"/>
      <point x="695" y="587" type="line" smooth="yes"/>
      <point x="695" y="757"/>
      <point x="557" y="895"/>
      <point x="388" y="895" type="curve" smooth="yes"/>
      <point x="218" y="895"/>
      <point x="80" y="757"/>
    </contour>
  </outline>
</glyph>
<glyph name="d" format="1">
  <advance width="775"/>
  <unicode hex="0064"/>
  <outline>
    <contour>
      <point x="695" y="587" type="curve" smooth="yes"/>
      <point x="695" y="757"/>
      <point x="557" y="895"/>
      <point x="388" y="895" type="curve" smooth="yes"/>
      <point x="218" y="895"/>
      <point x="80" y="757"/>
      <point x="80" y="587" type="curve" smooth="yes"/>
      <point x="80" y="292" type="line" smooth="yes"/>
      <point x="80" y="122"/>
      <point x="218" y="-16"/>
      <point x="388" y="-16" type="curve" smooth="yes"/>
      <point x="557" y="-16"/>
      <point x="695" y="122"/>
      <point x="695" y="292" type="curve" smooth="yes"/>
      <point x="695" y="1200" type="line" smooth="yes"/>
      <point x="695" y="1209"/>
      <point x="688" y="1216"/>
      <point x="679" y="1216" type="curve" smooth="yes"/>
      <point x="670" y="1216"/>
      <point x="663" y="1209"/>
      <point x="663" y="1200" type="curve" smooth="yes"/>
      <point x="663" y="292" type="line" smooth="yes"/>
      <point x="663" y="140"/>
      <point x="539" y="16"/>
      <point x="388" y="16" type="curve" smooth="yes"/>
      <point x="236" y="16"/>
      <point x="112" y="140"/>
      <point x="112" y="292" type="curve" smooth="yes"/>
      <point x="112" y="587" type="line" smooth="yes"/>
      <point x="112" y="739"/>
      <point x="236" y="863"/>
      <point x="388" y="863" type="curve" smooth="yes"/>
      <point x="539" y="863"/>
      <point x="663" y="739"/>
      <point x="663" y="587" type="curve" smooth="yes"/>
      <point x="663" y="578"/>
      <point x="670" y="571"/>
      <point x="679" y="571" type="curve" smooth="yes"/>
      <point x="688" y="571"/>
      <point x="695" y="578"/>
    </contour>
  </outline>
</glyph>
<glyph name="e" format="1">
  <advance width="775"/>
  <unicode hex="0065"/>
  <outline>
    <contour>
      <point x="650" y="182" type="curve" smooth="yes"/>
      <point x="652" y="190"/>
      <point x="647" y="198"/>
      <point x="639" y="200" type="curve" smooth="yes"/>
      <point x="631" y="202"/>
      <point x="623" y="197"/>
      <point x="621" y="189" type="curve" smooth="yes"/>
      <point x="595" y="91"/>
      <point x="500" y="16"/>
      <point x="388" y="16" type="curve" smooth="yes"/>
      <point x="236" y="16"/>
      <point x="112" y="140"/>
      <point x="112" y="292" type="curve" smooth="yes"/>
      <point x="112" y="587" type="line" smooth="yes"/>
      <point x="112" y="739"/>
      <point x="236" y="863"/>
      <point x="388" y="863" type="curve" smooth="yes"/>
      <point x="539" y="863"/>
      <point x="663" y="739"/>
      <point x="663" y="587" type="curve" smooth="yes"/>
      <point x="663" y="445" type="line"/>
      <point x="679" y="461" type="line"/>
      <point x="101" y="461" type="line" smooth="yes"/>
      <point x="92" y="461"/>
      <point x="85" y="454"/>
      <point x="85" y="445" type="curve" smooth="yes"/>
      <point x="85" y="436"/>
      <point x="92" y="429"/>
      <point x="101" y="429" type="curve" smooth="yes"/>
      <point x="679" y="429" type="line" smooth="yes"/>
      <point x="688" y="429"/>
      <point x="695" y="436"/>
      <point x="695" y="445" type="curve" smooth="yes"/>
      <point x="695" y="587" type="line" smooth="yes"/>
      <point x="695" y="757"/>
      <point x="557" y="895"/>
      <point x="388" y="895" type="curve" smooth="yes"/>
      <point x="218" y="895"/>
      <point x="80" y="757"/>
      <point x="80" y="587" type="curve" smooth="yes"/>
      <point x="80" y="292" type="line" smooth="yes"/>
      <point x="80" y="122"/>
      <point x="218" y="-16"/>
      <point x="388" y="-16" type="curve" smooth="yes"/>
      <point x="514" y="-16"/>
      <point x="621" y="70"/>
    </contour>
  </outline>
</glyph>
<glyph name="f" format="1">
  <advance width="430"/>
  <unicode hex="0066"/>
  <outline>
    <contour>
      <point x="388" y="1184" type="curve" smooth="yes"/>
      <point x="397" y="1184"/>
      <point x="404" y="1191"/>
      <point x="404" y="1200" type="curve" smooth="yes"/>
      <point x="404" y="1209"/>
      <point x="397" y="1216"/>
      <point x="388" y="1216" type="curve" smooth="yes"/>
      <point x="218" y="1216"/>
      <point x="80" y="1078"/>
      <point x="80" y="908" type="curve" smooth="yes"/>
      <point x="80" y="16" type="line" smooth="yes"/>
      <point x="80" y="7"/>
      <point x="87" y="0"/>
      <point x="96" y="0" type="curve" smooth="yes"/>
      <point x="105" y="0"/>
      <point x="112" y="7"/>
      <point x="112" y="16" type="curve" smooth="yes"/>
      <point x="112" y="908" type="line" smooth="yes"/>
      <point x="112" y="1060"/>
      <point x="236" y="1184"/>
    </contour>
    <contour>
      <point x="269" y="590" type="line"/>
      <point x="278" y="590"/>
      <point x="285" y="597"/>
      <point x="285" y="606" type="curve" smooth="yes"/>
      <point x="285" y="615"/>
      <point x="278" y="622"/>
      <point x="269" y="622" type="curve" smooth="yes"/>
      <point x="106" y="622" type="line" smooth="yes"/>
      <point x="97" y="622"/>
      <point x="90" y="615"/>
      <point x="90" y="606" type="curve" smooth="yes"/>
      <point x="90" y="597"/>
      <point x="97" y="590"/>
      <point x="106" y="590" type="curve" smooth="yes"/>
    </contour>
  </outline>
</glyph>
<glyph name="h" format="1">
  <advance width="775"/>
  <unicode hex="0068"/>
  <outline>
    <contour>
      <point x="663" y="16" type="line"/>
      <point x="663" y="7"/>
      <point x="670" y="0"/>
      <point x="679" y="0" type="curve" smooth="yes"/>
      <point x="688" y="0"/>
      <point x="695" y="7"/>
      <point x="695" y="16" type="curve" smooth="yes"/>
      <point x="695" y="587" type="line" smooth="yes"/>
      <point x="695" y="757"/>
      <point x="557" y="895"/>
      <point x="388" y="895" type="curve" smooth="yes"/>
      <point x="235" y="895"/>
      <point x="107" y="783"/>
      <point x="84" y="636" type="curve" smooth="yes"/>
      <point x="83" y="628"/>
      <point x="89" y="619"/>
      <point x="97" y="618" type="curve" smooth="yes"/>
      <point x="106" y="617"/>
      <point x="114" y="623"/>
      <point x="116" y="631" type="curve" smooth="yes"/>
      <point x="137" y="763"/>
      <point x="251" y="863"/>
      <point x="388" y="863" type="curve" smooth="yes"/>
      <point x="539" y="863"/>
      <point x="663" y="739"/>
      <point x="663" y="587" type="curve" smooth="yes"/>
    </contour>
    <contour>
      <point x="112" y="1200" type="line"/>
      <point x="112" y="1209"/>
      <point x="105" y="1216"/>
      <point x="96" y="1216" type="curve" smooth="yes"/>
      <point x="87" y="1216"/>
      <point x="80" y="1209"/>
      <point x="80" y="1200" type="curve" smooth="yes"/>
      <point x="80" y="16" type="line" smooth="yes"/>
      <point x="80" y="7"/>
      <point x="87" y="0"/>
      <point x="96" y="0" type="curve" smooth="yes"/>
      <point x="105" y="0"/>
      <point x="112" y="7"/>
      <point x="112" y="16" type="curve" smooth="yes"/>
    </contour>
  </outline>
</glyph>
<glyph name="m" format="1">
  <advance width="971"/>
  <unicode hex="006D"/>
  <outline>
    <contour>
      <point x="112" y="820" type="line"/>
      <point x="112" y="829"/>
      <point x="105" y="836"/>
      <point x="96" y="836" type="curve" smooth="yes"/>
      <point x="87" y="836"/>
      <point x="80" y="829"/>
      <point x="80" y="820" type="curve" smooth="yes"/>
      <point x="80" y="16" type="line" smooth="yes"/>
      <point x="80" y="7"/>
      <point x="87" y="0"/>
      <point x="96" y="0" type="curve" smooth="yes"/>
      <point x="105" y="0"/>
      <point x="112" y="7"/>
      <point x="112" y="16" type="curve" smooth="yes"/>
    </contour>
    <contour>
      <point x="477" y="728" type="curve" smooth="yes"/>
      <point x="474" y="720"/>
      <point x="480" y="711"/>
      <point x="488" y="709" type="curve" smooth="yes"/>
      <point x="496" y="706"/>
      <point x="505" y="712"/>
      <point x="507" y="720" type="curve" smooth="yes"/>
      <point x="528" y="796"/>
      <point x="597" y="852"/>
      <point x="680" y="852" type="curve" smooth="yes"/>
      <point x="778" y="852"/>
      <point x="858" y="772"/>
      <point x="858" y="674" type="curve" smooth="yes"/>
      <point x="858" y="16" type="line" smooth="yes"/>
      <point x="858" y="7"/>
      <point x="865" y="0"/>
      <point x="874" y="0" type="curve" smooth="yes"/>
      <point x="883" y="0"/>
      <point x="890" y="7"/>
      <point x="890" y="16" type="curve" smooth="yes"/>
      <point x="890" y="674" type="line" smooth="yes"/>
      <point x="890" y="790"/>
      <point x="796" y="884"/>
      <point x="680" y="884" type="curve" smooth="yes"/>
      <point x="583" y="884"/>
      <point x="500" y="818"/>
    </contour>
    <contour>
      <point x="88" y="728" type="curve" smooth="yes"/>
      <point x="85" y="720"/>
      <point x="91" y="711"/>
      <point x="99" y="709" type="curve" smooth="yes"/>
      <point x="107" y="706"/>
      <point x="116" y="712"/>
      <point x="118" y="720" type="curve" smooth="yes"/>
      <point x="139" y="796"/>
      <point x="208" y="852"/>
      <point x="290" y="852" type="curve" smooth="yes"/>
      <point x="388" y="852"/>
      <point x="469" y="772"/>
      <point x="469" y="674" type="curve" smooth="yes"/>
      <point x="469" y="16" type="line" smooth="yes"/>
      <point x="469" y="7"/>
      <point x="476" y="0"/>
      <point x="485" y="0" type="curve" smooth="yes"/>
      <point x="494" y="0"/>
      <point x="501" y="7"/>
      <point x="501" y="16" type="curve" smooth="yes"/>
      <point x="501" y="674" type="line" smooth="yes"/>
      <point x="501" y="790"/>
      <point x="406" y="884"/>
      <point x="290" y="884" type="curve" smooth="yes"/>
      <point x="194" y="884"/>
      <point x="111" y="818"/>
    </contour>
  </outline>
</glyph>
<glyph name="o" format="1">
  <advance width="775"/>
  <unicode hex="006F"/>
  <outline>
    <contour>
      <point x="80" y="292" type="line"/>
      <point x="80" y="122"/>
      <point x="218" y="-16"/>
      <point x="388" y="-16" type="curve" smooth="yes"/>
      <point x="557" y="-16"/>
      <point x="695" y="122"/>
      <point x="695" y="292" type="curve" smooth="yes"/>
      <point x="695" y="587" type="line" smooth="yes"/>
      <point x="695" y="757"/>
      <point x="557" y="895"/>
      <point x="388" y="895" type="curve" smooth="yes"/>
      <point x="218" y="895"/>
      <point x="80" y="757"/>
      <point x="80" y="587" type="curve" smooth="yes"/>
    </contour>
    <contour>
      <point x="112" y="292" type="curve" smooth="yes"/>
      <point x="112" y="587" type="line" smooth="yes"/>
      <point x="112" y="739"/>
      <point x="236" y="863"/>
      <point x="388" y="863" type="curve" smooth="yes"/>
      <point x="539" y="863"/>
      <point x="663" y="739"/>
      <point x="663" y="587" type="curve" smooth="yes"/>
      <point x="663" y="292" type="line" smooth="yes"/>
      <point x="663" y="140"/>
      <point x="539" y="16"/>
      <point x="388" y="16" type="curve" smooth="yes"/>
      <point x="236" y="16"/>
      <point x="112" y="140"/>
    </contour>
  </outline>
</glyph>
<glyph name="r" format="1">
  <advance width="434"/>
  <unicode hex="0072"/>
  <outline>
    <contour>
      <point x="388" y="863" type="curve" smooth="yes"/>
      <point x="397" y="863"/>
      <point x="404" y="870"/>
      <point x="404" y="879" type="curve" smooth="yes"/>
      <point x="404" y="888"/>
      <point x="397" y="895"/>
      <point x="388" y="895" type="curve" smooth="yes"/>
      <point x="244" y="895"/>
      <point x="123" y="795"/>
      <point x="90" y="662" type="curve" smooth="yes"/>
      <point x="88" y="653"/>
      <point x="93" y="644"/>
      <point x="101" y="642" type="curve" smooth="yes"/>
      <point x="110" y="640"/>
      <point x="119" y="645"/>
      <point x="121" y="653" type="curve" smooth="yes"/>
      <point x="149" y="774"/>
      <point x="259" y="863"/>
    </contour>
    <contour>
      <point x="112" y="820" type="line"/>
      <point x="112" y="829"/>
      <point x="105" y="836"/>
      <point x="96" y="836" type="curve" smooth="yes"/>
      <point x="87" y="836"/>
      <point x="80" y="829"/>
      <point x="80" y="820" type="curve" smooth="yes"/>
      <point x="80" y="16" type="line" smooth="yes"/>
      <point x="80" y="7"/>
      <point x="87" y="0"/>
      <point x="96" y="0" type="curve" smooth="yes"/>
      <point x="105" y="0"/>
      <point x="112" y="7"/>
      <point x="112" y="16" type="curve" smooth="yes"/>
    </contour>
  </outline>
</glyph>
<glyph name="s" format="1">
  <advance width="784"/>
  <unicode hex="0073"/>
  <outline>
    <contour>
      <point x="112" y="222" type="curve" smooth="yes"/>
      <point x="112" y="231"/>
      <point x="105" y="238"/>
      <point x="96" y="238" type="curve" smooth="yes"/>
      <point x="87" y="238"/>
      <point x="80" y="231"/>
      <point x="80" y="222" type="curve" smooth="yes"/>
      <point x="80" y="91"/>
      <point x="187" y="-16"/>
      <point x="319" y="-16" type="curve" smooth="yes"/>
      <point x="466" y="-16" type="line" smooth="yes"/>
      <point x="597" y="-16"/>
      <point x="704" y="91"/>
      <point x="704" y="222" type="curve" smooth="yes"/>
      <point x="704" y="224" type="line" smooth="yes"/>
      <point x="704" y="356"/>
      <point x="597" y="463"/>
      <point x="466" y="463" type="curve" smooth="yes"/>
      <point x="319" y="463" type="line" smooth="yes"/>
      <point x="209" y="463"/>
      <point x="119" y="554"/>
      <point x="119" y="664" type="curve" smooth="yes"/>
      <point x="119" y="773"/>
      <point x="209" y="863"/>
      <point x="319" y="863" type="curve" smooth="yes"/>
      <point x="466" y="863" type="line" smooth="yes"/>
      <point x="577" y="863"/>
      <point x="668" y="773"/>
      <point x="668" y="664" type="curve" smooth="yes"/>
      <point x="668" y="655"/>
      <point x="675" y="648"/>
      <point x="684" y="648" type="curve" smooth="yes"/>
      <point x="693" y="648"/>
      <point x="700" y="655"/>
      <point x="700" y="664" type="curve" smooth="yes"/>
      <point x="700" y="791"/>
      <point x="595" y="895"/>
      <point x="466" y="895" type="curve" smooth="yes"/>
      <point x="319" y="895" type="line" smooth="yes"/>
      <point x="191" y="895"/>
      <point x="87" y="791"/>
      <point x="87" y="664" type="curve" smooth="yes"/>
      <point x="87" y="536"/>
      <point x="191" y="431"/>
      <point x="319" y="431" type="curve" smooth="yes"/>
      <point x="466" y="431" type="line" smooth="yes"/>
      <point x="579" y="431"/>
      <point x="672" y="338"/>
      <point x="672" y="224" type="curve" smooth="yes"/>
      <point x="672" y="222" type="line" smooth="yes"/>
      <point x="672" y="109"/>
      <point x="579" y="16"/>
      <point x="466" y="16" type="curve" smooth="yes"/>
      <point x="319" y="16" type="line" smooth="yes"/>
      <point x="205" y="16"/>
      <point x="112" y="109"/>
    </contour>
  </outline>
</glyph>
<glyph name="t" format="1">
  <advance width="463.0"/>
  <unicode hex="0074"/>
  <outline>
    <contour>
      <point x="112" y="1052" type="line"/>
      <point x="112" y="1061"/>
      <point x="105" y="1068"/>
      <point x="96" y="1068" type="curve" smooth="yes"/>
      <point x="87" y="1068"/>
      <point x="80" y="1061"/>
      <point x="80" y="1052" type="curve" smooth="yes"/>
      <point x="80" y="256" type="line" smooth="yes"/>
      <point x="80" y="106"/>
      <point x="202" y="-16"/>
      <point x="352" y="-16" type="curve" smooth="yes"/>
      <point x="368" y="-16" type="line" smooth="yes"/>
      <point x="377" y="-16"/>
      <point x="384" y="-9"/>
      <point x="384" y="0" type="curve" smooth="yes"/>
      <point x="384" y="9"/>
      <point x="377" y="16"/>
      <point x="368" y="16" type="curve" smooth="yes"/>
      <point x="352" y="16" type="line" smooth="yes"/>
      <point x="220" y="16"/>
      <point x="112" y="124"/>
      <point x="112" y="256" type="curve" smooth="yes"/>
    </contour>
    <contour>
      <point x="103" y="622" type="line"/>
      <point x="94" y="622"/>
      <point x="87" y="615"/>
      <point x="87" y="606" type="curve" smooth="yes"/>
      <point x="87" y="597"/>
      <point x="94" y="590"/>
      <point x="103" y="590" type="curve" smooth="yes"/>
      <point x="269" y="590" type="line" smooth="yes"/>
      <point x="278" y="590"/>
      <point x="285" y="597"/>
      <point x="285" y="606" type="curve" smooth="yes"/>
      <point x="285" y="615"/>
      <point x="278" y="622"/>
      <point x="269" y="622" type="curve" smooth="yes"/>
    </contour>
  </outline>
</glyph>
<glyph name="v" format="1">
  <advance width="742"/>
  <unicode hex="0076"/>
  <outline>
    <contour>
      <point x="91" y="873" type="line"/>
      <point x="88" y="881"/>
      <point x="79" y="886"/>
      <point x="71" y="884" type="curve" smooth="yes"/>
      <point x="63" y="881"/>
      <point x="58" y="871"/>
      <point x="61" y="863" type="curve" smooth="yes"/>
      <point x="356" y="-5" type="line" smooth="yes"/>
      <point x="361" y="-21"/>
      <point x="381" y="-21"/>
      <point x="386" y="-5" type="curve" smooth="yes"/>
      <point x="681" y="863" type="line" smooth="yes"/>
      <point x="684" y="871"/>
      <point x="679" y="881"/>
      <point x="671" y="884" type="curve" smooth="yes"/>
      <point x="663" y="886"/>
      <point x="654" y="881"/>
      <point x="651" y="873" type="curve" smooth="yes"/>
      <point x="356" y="5" type="line"/>
      <point x="386" y="5" type="line"/>
    </contour>
  </outline>
</glyph>
<glyph name="x" format="1">
  <advance width="775"/>
  <unicode hex="0078"/>
  <outline>
    <contour>
      <point x="692" y="855" type="line"/>
      <point x="697" y="861"/>
      <point x="695" y="871"/>
      <point x="688" y="876" type="curve" smooth="yes"/>
      <point x="681" y="881"/>
      <point x="671" y="879"/>
      <point x="666" y="871" type="curve" smooth="yes"/>
      <point x="83" y="24" type="line" smooth="yes"/>
      <point x="78" y="18"/>
      <point x="80" y="8"/>
      <point x="88" y="3" type="curve" smooth="yes"/>
      <point x="94" y="-2"/>
      <point x="104" y="0"/>
      <point x="109" y="8" type="curve" smooth="yes"/>
    </contour>
    <contour>
      <point x="666" y="8" type="line"/>
      <point x="671" y="0"/>
      <point x="681" y="-2"/>
      <point x="688" y="3" type="curve" smooth="yes"/>
      <point x="695" y="8"/>
      <point x="697" y="18"/>
      <point x="692" y="24" type="curve" smooth="yes"/>
      <point x="109" y="871" type="line" smooth="yes"/>
      <point x="104" y="879"/>
      <point x="94" y="881"/>
      <point x="88" y="876" type="curve" smooth="yes"/>
      <point x="80" y="871"/>
      <point x="78" y="861"/>
      <point x="83" y="855" type="curve" smooth="yes"/>
    </contour>
  </outline>
</glyph>
<glyph name="bar" format="1">
  <advance width="252.0"/>
  <unicode hex="007C"/>
  <outline>
    <contour>
      <point x="126" y="1296" type="curve" smooth="yes"/>
      <point x="118" y="1296"/>
      <point x="110" y="1288"/>
      <point x="110" y="1280" type="curve" smooth="yes"/>
      <point x="110" y="-80" type="line" smooth="yes"/>
      <point x="110" y="-88"/>
      <point x="118" y="-96"/>
      <point x="126" y="-96" type="curve" smooth="yes"/>
      <point x="134" y="-96"/>
      <point x="142" y="-88"/>
      <point x="142" y="-80" type="curve" smooth="yes"/>
      <point x="142" y="1280" type="line" smooth="yes"/>
      <point x="142" y="1288"/>
      <point x="134" y="1296"/>
    </contour>
  </outline>
</glyph>
<glyph name="braceright" format="1">
  <advance width="384.0"/>
  <unicode hex="007D"/>
  <outline>
    <contour>
      <point x="76" y="-32" type="curve" smooth="yes"/>
      <point x="144" y="-32"/>
      <point x="198" y="22"/>
      <point x="198" y="90" type="curve" smooth="yes"/>
      <point x="198" y="546" type="line" smooth="yes"/>
      <point x="198" y="596"/>
      <point x="238" y="636"/>
      <point x="288" y="636" type="curve" smooth="yes"/>
      <point x="296" y="636"/>
      <point x="304" y="644"/>
      <point x="304" y="652" type="curve" smooth="yes"/>
      <point x="304" y="662"/>
      <point x="296" y="668"/>
      <point x="288" y="668" type="curve" smooth="yes"/>
      <point x="238" y="668"/>
      <point x="198" y="710"/>
      <point x="198" y="758" type="curve" smooth="yes"/>
      <point x="198" y="1110" type="line" smooth="yes"/>
      <point x="198" y="1178"/>
      <point x="144" y="1232"/>
      <point x="76" y="1232" type="curve" smooth="yes"/>
      <point x="68" y="1232"/>
      <point x="60" y="1224"/>
      <point x="60" y="1216" type="curve" smooth="yes"/>
      <point x="60" y="1208"/>
      <point x="68" y="1200"/>
      <point x="76" y="1200" type="curve" smooth="yes"/>
      <point x="126" y="1200"/>
      <point x="166" y="1160"/>
      <point x="166" y="1110" type="curve" smooth="yes"/>
      <point x="166" y="758" type="line" smooth="yes"/>
      <point x="166" y="714"/>
      <point x="190" y="674"/>
      <point x="228" y="652" type="curve"/>
      <point x="190" y="632"/>
      <point x="166" y="592"/>
      <point x="166" y="546" type="curve" smooth="yes"/>
      <point x="166" y="90" type="line" smooth="yes"/>
      <point x="166" y="40"/>
      <point x="126" y="0"/>
      <point x="76" y="0" type="curve" smooth="yes"/>
      <point x="68" y="0"/>
      <point x="60" y="-8"/>
      <point x="60" y="-16" type="curve" smooth="yes"/>
      <point x="60" y="-24"/>
      <point x="68" y="-32"/>
    </contour>
  </outline>
</glyph>
<glyph name="asciitilde" format="1">
  <advance width="681"/>
  <unicode hex="007E"/>
  <outline>
    <contour>
      <point x="141" y="640" type="curve" smooth="yes"/>
      <point x="139" y="632"/>
      <point x="143" y="624"/>
      <point x="150" y="620" type="curve" smooth="yes"/>
      <point x="158" y="618"/>
      <point x="167" y="622"/>
      <point x="170" y="629" type="curve" smooth="yes"/>
      <point x="198" y="687"/>
      <point x="280" y="704"/>
      <point x="329" y="643" type="curve" smooth="yes"/>
      <point x="395" y="556"/>
      <point x="506" y="587"/>
      <point x="541" y="665" type="curve" smooth="yes"/>
      <point x="543" y="673"/>
      <point x="539" y="682"/>
      <point x="532" y="685" type="curve" smooth="yes"/>
      <point x="524" y="688"/>
      <point x="515" y="684"/>
      <point x="512" y="676" type="curve" smooth="yes"/>
      <point x="484" y="619"/>
      <point x="401" y="601"/>
      <point x="353" y="662" type="curve" smooth="yes"/>
      <point x="286" y="749"/>
      <point x="176" y="719"/>
    </contour>
  </outline>
</glyph>
<glyph name="cent" format="1">
  <advance width="776"/>
  <unicode hex="00A2"/>
  <outline>
    <contour>
      <point x="650" y="182" type="curve" smooth="yes"/>
      <point x="652" y="190"/>
      <point x="647" y="198"/>
      <point x="639" y="200" type="curve" smooth="yes"/>
      <point x="631" y="202"/>
      <point x="623" y="197"/>
      <point x="621" y="189" type="curve" smooth="yes"/>
      <point x="595" y="91"/>
      <point x="500" y="16"/>
      <point x="388" y="16" type="curve" smooth="yes"/>
      <point x="236" y="16"/>
      <point x="112" y="140"/>
      <point x="112" y="292" type="curve" smooth="yes"/>
      <point x="112" y="587" type="line" smooth="yes"/>
      <point x="112" y="739"/>
      <point x="236" y="863"/>
      <point x="388" y="863" type="curve" smooth="yes"/>
      <point x="500" y="863"/>
      <point x="595" y="788"/>
      <point x="621" y="690" type="curve" smooth="yes"/>
      <point x="623" y="682"/>
      <point x="631" y="677"/>
      <point x="639" y="679" type="curve" smooth="yes"/>
      <point x="647" y="681"/>
      <point x="652" y="689"/>
      <point x="650" y="697" type="curve" smooth="yes"/>
      <point x="621" y="809"/>
      <point x="514" y="895"/>
      <point x="388" y="895" type="curve" smooth="yes"/>
      <point x="218" y="895"/>
      <point x="80" y="757"/>
      <point x="80" y="587" type="curve" smooth="yes"/>
      <point x="80" y="292" type="line" smooth="yes"/>
      <point x="80" y="122"/>
      <point x="218" y="-16"/>
      <point x="388" y="-16" type="curve" smooth="yes"/>
      <point x="514" y="-16"/>
      <point x="621" y="70"/>
    </contour>
    <contour>
      <point x="404" y="944" type="line"/>
      <point x="404" y="953"/>
      <point x="397" y="960"/>
      <point x="388" y="960" type="curve" smooth="yes"/>
      <point x="379" y="960"/>
      <point x="372" y="953"/>
      <point x="372" y="944" type="curve" smooth="yes"/>
      <point x="372" y="-77" type="line" smooth="yes"/>
      <point x="372" y="-86"/>
      <point x="379" y="-93"/>
      <point x="388" y="-93" type="curve" smooth="yes"/>
      <point x="397" y="-93"/>
      <point x="404" y="-86"/>
      <point x="404" y="-77" type="curve" smooth="yes"/>
    </contour>
  </outline>
</glyph>
<glyph name="yen" format="1">
  <advance width="833.0"/>
  <unicode hex="00A5"/>
  <outline>
    <contour>
      <point x="106" y="1202" type="line"/>
      <point x="103" y="1209"/>
      <point x="93" y="1212"/>
      <point x="85" y="1208" type="curve" smooth="yes"/>
      <point x="78" y="1205"/>
      <point x="75" y="1195"/>
      <point x="79" y="1188" type="curve" smooth="yes"/>
      <point x="410" y="544" type="line" smooth="yes"/>
      <point x="417" y="523"/>
      <point x="430" y="523"/>
      <point x="437" y="544" type="curve" smooth="yes"/>
      <point x="767" y="1188" type="line" smooth="yes"/>
      <point x="771" y="1195"/>
      <point x="768" y="1205"/>
      <point x="761" y="1208" type="curve" smooth="yes"/>
      <point x="753" y="1212"/>
      <point x="743" y="1209"/>
      <point x="740" y="1202" type="curve" smooth="yes"/>
      <point x="410" y="558" type="line"/>
      <point x="437" y="558" type="line"/>
    </contour>
    <contour>
      <point x="407" y="16" type="line"/>
      <point x="407" y="7"/>
      <point x="414" y="0"/>
      <point x="423" y="0" type="curve" smooth="yes"/>
      <point x="432" y="0"/>
      <point x="439" y="7"/>
      <point x="439" y="16" type="curve" smooth="yes"/>
      <point x="439" y="551" type="line" smooth="yes"/>
      <point x="439" y="560"/>
      <point x="432" y="567"/>
      <point x="423" y="567" type="curve" smooth="yes"/>
      <point x="414" y="567"/>
      <point x="407" y="560"/>
      <point x="407" y="551" type="curve" smooth="yes"/>
    </contour>
    <contour>
      <point x="263" y="443" type="line"/>
      <point x="254" y="443"/>
      <point x="247" y="436"/>
      <point x="247" y="427" type="curve" smooth="yes"/>
      <point x="247" y="418"/>
      <point x="254" y="411"/>
      <point x="263" y="411" type="curve" smooth="yes"/>
      <point x="578" y="411" type="line" smooth="yes"/>
      <point x="587" y="411"/>
      <point x="594" y="418"/>
      <point x="594" y="427" type="curve" smooth="yes"/>
      <point x="594" y="436"/>
      <point x="587" y="443"/>
      <point x="578" y="443" type="curve" smooth="yes"/>
    </contour>
    <contour>
      <point x="263" y="363" type="line"/>
      <point x="254" y="363"/>
      <point x="247" y="356"/>
      <point x="247" y="347" type="curve" smooth="yes"/>
      <point x="247" y="338"/>
      <point x="254" y="331"/>
      <point x="263" y="331" type="curve" smooth="yes"/>
      <point x="578" y="331" type="line" smooth="yes"/>
      <point x="587" y="331"/>
      <point x="594" y="338"/>
      <point x="594" y="347" type="curve" smooth="yes"/>
      <point x="594" y="356"/>
      <point x="587" y="363"/>
      <point x="578" y="363" type="curve" smooth="yes"/>
    </contour>
  </outline>
</glyph>
<glyph name="section" format="1">
  <advance width="1000.0"/>
  <unicode hex="00A7"/>
  <outline>
    <contour>
      <point x="567" y="919" type="curve" smooth="yes"/>
      <point x="567" y="910"/>
      <point x="574" y="903"/>
      <point x="583" y="903" type="curve" smooth="yes"/>
      <point x="592" y="903"/>
      <point x="599" y="910"/>
      <point x="599" y="919" type="curve" smooth="yes"/>
      <point x="599" y="1049"/>
      <point x="494" y="1154"/>
      <point x="364" y="1154" type="curve" smooth="yes"/>
      <point x="355" y="1154" type="line" smooth="yes"/>
      <point x="225" y="1154"/>
      <point x="120" y="1049"/>
      <point x="120" y="919" type="curve" smooth="yes"/>
      <point x="120" y="893" type="line" smooth="yes"/>
      <point x="120" y="764"/>
      <point x="225" y="659"/>
      <point x="355" y="659" type="curve" smooth="yes"/>
      <point x="406" y="659" type="line" smooth="yes"/>
      <point x="528" y="659"/>
      <point x="628" y="559"/>
      <point x="628" y="437" type="curve" smooth="yes"/>
      <point x="628" y="335" type="line" smooth="yes"/>
      <point x="628" y="213"/>
      <point x="528" y="113"/>
      <point x="406" y="113" type="curve" smooth="yes"/>
      <point x="386" y="113" type="line" smooth="yes"/>
      <point x="377" y="113"/>
      <point x="370" y="106"/>
      <point x="370" y="97" type="curve" smooth="yes"/>
      <point x="370" y="88"/>
      <point x="377" y="81"/>
      <point x="386" y="81" type="curve" smooth="yes"/>
      <point x="406" y="81" type="line" smooth="yes"/>
      <point x="546" y="81"/>
      <point x="660" y="195"/>
      <point x="660" y="335" type="curve" smooth="yes"/>
      <point x="660" y="437" type="line" smooth="yes"/>
      <point x="660" y="577"/>
      <point x="546" y="691"/>
      <point x="406" y="691" type="curve" smooth="yes"/>
      <point x="355" y="691" type="line" smooth="yes"/>
      <point x="243" y="691"/>
      <point x="152" y="782"/>
      <point x="152" y="893" type="curve" smooth="yes"/>
      <point x="152" y="919" type="line" smooth="yes"/>
      <point x="152" y="1031"/>
      <point x="243" y="1122"/>
      <point x="355" y="1122" type="curve" smooth="yes"/>
      <point x="364" y="1122" type="line" smooth="yes"/>
      <point x="476" y="1122"/>
      <point x="567" y="1031"/>
    </contour>
    <contour>
      <point x="175" y="-147" type="curve" smooth="yes"/>
      <point x="175" y="-138"/>
      <point x="168" y="-131"/>
      <point x="159" y="-131" type="curve" smooth="yes"/>
      <point x="150" y="-131"/>
      <point x="143" y="-138"/>
      <point x="143" y="-147" type="curve" smooth="yes"/>
      <point x="143" y="-277"/>
      <point x="248" y="-382"/>
      <point x="378" y="-382" type="curve" smooth="yes"/>
      <point x="387" y="-382" type="line" smooth="yes"/>
      <point x="517" y="-382"/>
      <point x="622" y="-277"/>
      <point x="622" y="-147" type="curve" smooth="yes"/>
      <point x="622" y="-122" type="line" smooth="yes"/>
      <point x="622" y="8"/>
      <point x="517" y="113"/>
      <point x="387" y="113" type="curve" smooth="yes"/>
      <point x="336" y="113" type="line" smooth="yes"/>
      <point x="214" y="113"/>
      <point x="114" y="213"/>
      <point x="114" y="335" type="curve" smooth="yes"/>
      <point x="114" y="437" type="line" smooth="yes"/>
      <point x="114" y="559"/>
      <point x="214" y="659"/>
      <point x="336" y="659" type="curve" smooth="yes"/>
      <point x="356" y="659" type="line" smooth="yes"/>
      <point x="365" y="659"/>
      <point x="372" y="666"/>
      <point x="372" y="675" type="curve" smooth="yes"/>
      <point x="372" y="684"/>
      <point x="365" y="691"/>
      <point x="356" y="691" type="curve" smooth="yes"/>
      <point x="336" y="691" type="line" smooth="yes"/>
      <point x="196" y="691"/>
      <point x="82" y="577"/>
      <point x="82" y="437" type="curve" smooth="yes"/>
      <point x="82" y="335" type="line" smooth="yes"/>
      <point x="82" y="195"/>
      <point x="196" y="81"/>
      <point x="336" y="81" type="curve" smooth="yes"/>
      <point x="387" y="81" type="line" smooth="yes"/>
      <point x="499" y="81"/>
      <point x="590" y="-10"/>
      <point x="590" y="-122" type="curve" smooth="yes"/>
      <point x="590" y="-147" type="line" smooth="yes"/>
      <point x="590" y="-259"/>
      <point x="499" y="-350"/>
      <point x="387" y="-350" type="curve" smooth="yes"/>
      <point x="378" y="-350" type="line" smooth="yes"/>
      <point x="266" y="-350"/>
      <point x="175" y="-259"/>
    </contour>
  </outline>
</glyph>
<glyph name="logicalnot" format="1">
  <advance width="728.0"/>
  <unicode hex="00AC"/>
  <outline>
    <contour>
      <point x="139" y="442" type="line"/>
      <point x="130" y="442"/>
      <point x="123" y="435"/>
      <point x="123" y="426" type="curve" smooth="yes"/>
      <point x="123" y="417"/>
      <point x="130" y="410"/>
      <point x="139" y="410" type="curve" smooth="yes"/>
      <point x="589" y="410" type="line"/>
      <point x="573" y="426" type="line"/>
      <point x="573" y="214" type="line" smooth="yes"/>
      <point x="573" y="205"/>
      <point x="580" y="198"/>
      <point x="589" y="198" type="curve" smooth="yes"/>
      <point x="598" y="198"/>
      <point x="605" y="205"/>
      <point x="605" y="214" type="curve" smooth="yes"/>
      <point x="605" y="426" type="line" smooth="yes"/>
      <point x="605" y="435"/>
      <point x="598" y="442"/>
      <point x="589" y="442" type="curve" smooth="yes"/>
    </contour>
  </outline>
</glyph>
<glyph name="degree" format="1">
  <advance width="438.0"/>
  <unicode hex="00B0"/>
  <note>
  </note>
  <outline>
    <contour>
      <point x="223" y="934" type="curve" smooth="yes"/>
      <point x="300" y="934"/>
      <point x="365" y="999"/>
      <point x="365" y="1077" type="curve" smooth="yes"/>
      <point x="365" y="1154"/>
      <point x="300" y="1219"/>
      <point x="223" y="1219" type="curve" smooth="yes"/>
      <point x="145" y="1219"/>
      <point x="80" y="1154"/>
      <point x="80" y="1077" type="curve" smooth="yes"/>
      <point x="80" y="999"/>
      <point x="145" y="934"/>
    </contour>
    <contour>
      <point x="223" y="966" type="curve" smooth="yes"/>
      <point x="162" y="966"/>
      <point x="112" y="1015"/>
      <point x="112" y="1077" type="curve" smooth="yes"/>
      <point x="112" y="1137"/>
      <point x="162" y="1187"/>
      <point x="223" y="1187" type="curve" smooth="yes"/>
      <point x="283" y="1187"/>
      <point x="333" y="1137"/>
      <point x="333" y="1077" type="curve" smooth="yes"/>
      <point x="333" y="1015"/>
      <point x="283" y="966"/>
    </contour>
  </outline>
</glyph>
<glyph name="questiondown" format="1">
  <advance width="775"/>
  <unicode hex="00BF"/>
  <outline>
    <contour>
      <point x="388" y="1220" type="curve" smooth="yes"/>
      <point x="376" y="1220"/>
      <point x="364" y="1208"/>
      <point x="364" y="1196" type="curve" smooth="yes"/>
      <point x="364" y="1184"/>
      <point x="376" y="1172"/>
      <point x="388" y="1172" type="curve" smooth="yes"/>
      <point x="400" y="1172"/>
      <point x="412" y="1184"/>
      <point x="412" y="1196" type="curve" smooth="yes"/>
      <point x="412" y="1208"/>
      <point x="400" y="1220"/>
    </contour>
    <contour>
      <point x="404" y="967" type="line"/>
      <point x="404" y="976"/>
      <point x="397" y="983"/>
      <point x="388" y="983" type="curve" smooth="yes"/>
      <point x="379" y="983"/>
      <point x="372" y="976"/>
      <point x="372" y="967" type="curve" smooth="yes"/>
      <point x="372" y="694" type="line"/>
      <point x="388" y="710" type="line"/>
      <point x="218" y="710"/>
      <point x="80" y="572"/>
      <point x="80" y="402" type="curve" smooth="yes"/>
      <point x="80" y="292" type="line" smooth="yes"/>
      <point x="80" y="122"/>
      <point x="218" y="-16"/>
      <point x="388" y="-16" type="curve" smooth="yes"/>
      <point x="557" y="-16"/>
      <point x="695" y="122"/>
      <point x="695" y="292" type="curve" smooth="yes"/>
      <point x="695" y="301"/>
      <point x="688" y="308"/>
      <point x="679" y="308" type="curve" smooth="yes"/>
      <point x="670" y="308"/>
      <point x="663" y="301"/>
      <point x="663" y="292" type="curve" smooth="yes"/>
      <point x="663" y="140"/>
      <point x="539" y="16"/>
      <point x="388" y="16" type="curve" smooth="yes"/>
      <point x="236" y="16"/>
      <point x="112" y="140"/>
      <point x="112" y="292" type="curve" smooth="yes"/>
      <point x="112" y="402" type="line" smooth="yes"/>
      <point x="112" y="554"/>
      <point x="236" y="678"/>
      <point x="388" y="678" type="curve" smooth="yes"/>
      <point x="397" y="678"/>
      <point x="404" y="685"/>
      <point x="404" y="694" type="curve" smooth="yes"/>
    </contour>
  </outline>
</glyph>
<glyph name="AE" format="1">
  <advance width="920"/>
  <unicode hex="00C6"/>
  <outline>
    <contour>
      <point x="824" y="1179" type="line"/>
      <point x="833" y="1179"/>
      <point x="840" y="1186"/>
      <point x="840" y="1195" type="curve" smooth="yes"/>
      <point x="840" y="1204"/>
      <point x="833" y="1211"/>
      <point x="824" y="1211" type="curve" smooth="yes"/>
      <point x="334" y="1211" type="line" smooth="yes"/>
      <point x="327" y="1211"/>
      <point x="320" y="1205"/>
      <point x="318" y="1198" type="curve" smooth="yes"/>
      <point x="72" y="19" type="line" smooth="yes"/>
      <point x="71" y="11"/>
      <point x="76" y="2"/>
      <point x="85" y="0" type="curve" smooth="yes"/>
      <point x="93" y="-1"/>
      <point x="102" y="4"/>
      <point x="104" y="13" type="curve" smooth="yes"/>
      <point x="350" y="1191" type="line"/>
      <point x="334" y="1179" type="line"/>
    </contour>
    <contour>
      <point x="147" y="289" type="line"/>
      <point x="138" y="289"/>
      <point x="131" y="282"/>
      <point x="131" y="273" type="curve" smooth="yes"/>
      <point x="131" y="264"/>
      <point x="138" y="257"/>
      <point x="147" y="257" type="curve" smooth="yes"/>
      <point x="411" y="257" type="line" smooth="yes"/>
      <point x="420" y="257"/>
      <point x="427" y="264"/>
      <point x="427" y="273" type="curve" smooth="yes"/>
      <point x="427" y="282"/>
      <point x="420" y="289"/>
      <point x="411" y="289" type="curve" smooth="yes"/>
    </contour>
    <contour>
      <point x="824" y="0" type="line"/>
      <point x="833" y="0"/>
      <point x="840" y="7"/>
      <point x="840" y="16" type="curve" smooth="yes"/>
      <point x="840" y="25"/>
      <point x="833" y="32"/>
      <point x="824" y="32" type="curve" smooth="yes"/>
      <point x="416" y="32" type="line"/>
      <point x="432" y="16" type="line"/>
      <point x="432" y="1191" type="line" smooth="yes"/>
      <point x="432" y="1200"/>
      <point x="425" y="1207"/>
      <point x="416" y="1207" type="curve" smooth="yes"/>
      <point x="407" y="1207"/>
      <point x="400" y="1200"/>
      <point x="400" y="1191" type="curve" smooth="yes"/>
      <point x="400" y="16" type="line" smooth="yes"/>
      <point x="400" y="7"/>
      <point x="407" y="0"/>
      <point x="416" y="0" type="curve" smooth="yes"/>
    </contour>
    <contour>
      <point x="418" y="562" type="line"/>
      <point x="409" y="562"/>
      <point x="402" y="555"/>
      <point x="402" y="546" type="curve" smooth="yes"/>
      <point x="402" y="537"/>
      <point x="409" y="530"/>
      <point x="418" y="530" type="curve" smooth="yes"/>
      <point x="674" y="530" type="line" smooth="yes"/>
      <point x="683" y="530"/>
      <point x="690" y="537"/>
      <point x="690" y="546" type="curve" smooth="yes"/>
      <point x="690" y="555"/>
      <point x="683" y="562"/>
      <point x="674" y="562" type="curve" smooth="yes"/>
    </contour>
  </outline>
</glyph>
<glyph name="multiply" format="1">
  <advance width="729"/>
  <unicode hex="00D7"/>
  <outline>
    <contour>
      <point x="152" y="193" type="curve" smooth="yes"/>
      <point x="597" y="637" type="line" smooth="yes"/>
      <point x="603" y="643"/>
      <point x="603" y="653"/>
      <point x="597" y="659" type="curve" smooth="yes"/>
      <point x="591" y="665"/>
      <point x="581" y="665"/>
      <point x="575" y="659" type="curve" smooth="yes"/>
      <point x="130" y="215" type="line" smooth="yes"/>
      <point x="124" y="209"/>
      <point x="124" y="199"/>
      <point x="130" y="193" type="curve" smooth="yes"/>
      <point x="136" y="187"/>
      <point x="146" y="187"/>
    </contour>
    <contour>
      <point x="131" y="637" type="curve" smooth="yes"/>
      <point x="576" y="193" type="line" smooth="yes"/>
      <point x="582" y="187"/>
      <point x="592" y="187"/>
      <point x="598" y="193" type="curve" smooth="yes"/>
      <point x="604" y="199"/>
      <point x="604" y="209"/>
      <point x="598" y="215" type="curve" smooth="yes"/>
      <point x="153" y="659" type="line" smooth="yes"/>
      <point x="147" y="665"/>
      <point x="137" y="665"/>
      <point x="131" y="659" type="curve" smooth="yes"/>
      <point x="125" y="653"/>
      <point x="125" y="643"/>
    </contour>
  </outline>
</glyph>
<glyph name="Thorn" format="1">
  <advance width="826"/>
  <unicode hex="00DE"/>
  <outline>
    <contour>
      <point x="80" y="-160" type="line"/>
      <point x="80" y="-169"/>
      <point x="87" y="-176"/>
      <point x="96" y="-176" type="curve" smooth="yes"/>
      <point x="105" y="-176"/>
      <point x="112" y="-169"/>
      <point x="112" y="-160" type="curve" smooth="yes"/>
      <point x="112" y="1200" type="line" smooth="yes"/>
      <point x="112" y="1209"/>
      <point x="105" y="1216"/>
      <point x="96" y="1216" type="curve" smooth="yes"/>
      <point x="87" y="1216"/>
      <point x="80" y="1209"/>
      <point x="80" y="1200" type="curve" smooth="yes"/>
    </contour>
    <contour>
      <point x="106" y="948" type="line"/>
      <point x="97" y="948"/>
      <point x="90" y="941"/>
      <point x="90" y="932" type="curve" smooth="yes"/>
      <point x="90" y="923"/>
      <point x="97" y="916"/>
      <point x="106" y="916" type="curve" smooth="yes"/>
      <point x="414" y="916" type="line" smooth="yes"/>
      <point x="581" y="916"/>
      <point x="716" y="780"/>
      <point x="716" y="614" type="curve" smooth="yes"/>
      <point x="716" y="319" type="line" smooth="yes"/>
      <point x="716" y="152"/>
      <point x="581" y="16"/>
      <point x="414" y="16" type="curve" smooth="yes"/>
      <point x="105" y="16" type="line" smooth="yes"/>
      <point x="96" y="16"/>
      <point x="89" y="9"/>
      <point x="89" y="0" type="curve" smooth="yes"/>
      <point x="89" y="-9"/>
      <point x="96" y="-16"/>
      <point x="105" y="-16" type="curve" smooth="yes"/>
      <point x="414" y="-16" type="line" smooth="yes"/>
      <point x="599" y="-16"/>
      <point x="748" y="134"/>
      <point x="748" y="319" type="curve" smooth="yes"/>
      <point x="748" y="614" type="line" smooth="yes"/>
      <point x="748" y="798"/>
      <point x="599" y="948"/>
      <point x="414" y="948" type="curve" smooth="yes"/>
    </contour>
  </outline>
</glyph>
<glyph name="thorn" format="1">
  <advance width="616.0"/>
  <unicode hex="00FE"/>
  <outline>
    <contour>
      <point x="80" y="-160" type="line"/>
      <point x="80" y="-169"/>
      <point x="87" y="-176"/>
      <point x="96" y="-176" type="curve" smooth="yes"/>
      <point x="105" y="-176"/>
      <point x="112" y="-169"/>
      <point x="112" y="-160" type="curve" smooth="yes"/>
      <point x="112" y="1200" type="line" smooth="yes"/>
      <point x="112" y="1209"/>
      <point x="105" y="1216"/>
      <point x="96" y="1216" type="curve" smooth="yes"/>
      <point x="87" y="1216"/>
      <point x="80" y="1209"/>
      <point x="80" y="1200" type="curve" smooth="yes"/>
    </contour>
    <contour>
      <point x="80" y="587" type="curve" smooth="yes"/>
      <point x="80" y="578"/>
      <point x="87" y="571"/>
      <point x="96" y="571" type="curve" smooth="yes"/>
      <point x="105" y="571"/>
      <point x="112" y="578"/>
      <point x="112" y="587" type="curve" smooth="yes"/>
      <point x="112" y="739"/>
      <point x="236" y="863"/>
      <point x="388" y="863" type="curve" smooth="yes"/>
      <point x="539" y="863"/>
      <point x="663" y="739"/>
      <point x="663" y="587" type="curve" smooth="yes"/>
      <point x="663" y="292" type="line" smooth="yes"/>
      <point x="663" y="140"/>
      <point x="539" y="16"/>
      <point x="388" y="16" type="curve" smooth="yes"/>
      <point x="236" y="16"/>
      <point x="112" y="140"/>
      <point x="112" y="292" type="curve" smooth="yes"/>
      <point x="112" y="301"/>
      <point x="105" y="308"/>
      <point x="96" y="308" type="curve" smooth="yes"/>
      <point x="87" y="308"/>
      <point x="80" y="301"/>
      <point x="80" y="292" type="curve" smooth="yes"/>
      <point x="80" y="122"/>
      <point x="218" y="-16"/>
      <point x="388" y="-16" type="curve" smooth="yes"/>
      <point x="557" y="-16"/>
      <point x="695" y="122"/>
      <point x="695" y="292" type="curve" smooth="yes"/>
      <point x="695" y="587" type="line" smooth="yes"/>
      <point x="695" y="757"/>
      <point x="557" y="895"/>
      <point x="388" y="895" type="curve" smooth="yes"/>
      <point x="218" y="895"/>
      <point x="80" y="757"/>
    </contour>
  </outline>
</glyph>
<glyph name="Hbar" format="1">
  <advance width="859"/>
  <unicode hex="0126"/>
  <outline>
    <contour>
      <point x="833" y="978" type="line"/>
      <point x="841" y="978"/>
      <point x="849" y="986"/>
      <point x="849" y="994" type="curve" smooth="yes"/>
      <point x="849" y="1002"/>
      <point x="841" y="1010"/>
      <point x="833" y="1010" type="curve" smooth="yes"/>
      <point x="26" y="1010" type="line" smooth="yes"/>
      <point x="18" y="1010"/>
      <point x="10" y="1002"/>
      <point x="10" y="994" type="curve" smooth="yes"/>
      <point x="10" y="986"/>
      <point x="18" y="978"/>
      <point x="26" y="978" type="curve" smooth="yes"/>
    </contour>
    <component base="H"/>
  </outline>
</glyph>
<glyph name="lslash" format="1">
  <advance width="248"/>
  <unicode hex="0142"/>
  <outline>
    <contour>
      <point x="207" y="884" type="line"/>
      <point x="214" y="888"/>
      <point x="217" y="899"/>
      <point x="213" y="906" type="curve" smooth="yes"/>
      <point x="209" y="912"/>
      <point x="198" y="915"/>
      <point x="191" y="911" type="curve" smooth="yes"/>
      <point x="41" y="824" type="line" smooth="yes"/>
      <point x="34" y="820"/>
      <point x="31" y="809"/>
      <point x="35" y="803" type="curve" smooth="yes"/>
      <point x="39" y="796"/>
      <point x="50" y="793"/>
      <point x="57" y="797" type="curve" smooth="yes"/>
    </contour>
    <component base="l" xOffset="-2"/>
  </outline>
</glyph>
<glyph name="OE" format="1">
  <advance width="1213"/>
  <unicode hex="0152"/>
  <outline>
    <contour>
      <point x="1119" y="0" type="line"/>
      <point x="1128" y="0"/>
      <point x="1135" y="7"/>
      <point x="1135" y="16" type="curve" smooth="yes"/>
      <point x="1135" y="25"/>
      <point x="1128" y="32"/>
      <point x="1119" y="32" type="curve" smooth="yes"/>
      <point x="687" y="32" type="line"/>
      <point x="703" y="16" type="line"/>
      <point x="703" y="1184" type="line"/>
      <point x="687" y="1168" type="line"/>
      <point x="1119" y="1168" type="line" smooth="yes"/>
      <point x="1128" y="1168"/>
      <point x="1135" y="1175"/>
      <point x="1135" y="1184" type="curve" smooth="yes"/>
      <point x="1135" y="1193"/>
      <point x="1128" y="1200"/>
      <point x="1119" y="1200" type="curve" smooth="yes"/>
      <point x="687" y="1200" type="line" smooth="yes"/>
      <point x="678" y="1200"/>
      <point x="671" y="1193"/>
      <point x="671" y="1184" type="curve" smooth="yes"/>
      <point x="671" y="16" type="line" smooth="yes"/>
      <point x="671" y="7"/>
      <point x="678" y="0"/>
      <point x="687" y="0" type="curve" smooth="yes"/>
    </contour>
    <contour>
      <point x="695" y="562" type="line"/>
      <point x="686" y="562"/>
      <point x="679" y="555"/>
      <point x="679" y="546" type="curve" smooth="yes"/>
      <point x="679" y="537"/>
      <point x="686" y="530"/>
      <point x="695" y="530" type="curve" smooth="yes"/>
      <point x="901" y="530" type="line" smooth="yes"/>
      <point x="910" y="530"/>
      <point x="917" y="537"/>
      <point x="917" y="546" type="curve" smooth="yes"/>
      <point x="917" y="555"/>
      <point x="910" y="562"/>
      <point x="901" y="562" type="curve" smooth="yes"/>
    </contour>
    <contour>
      <point x="667" y="1044" type="curve" smooth="yes"/>
      <point x="670" y="1037"/>
      <point x="680" y="1034"/>
      <point x="688" y="1037" type="curve" smooth="yes"/>
      <point x="695" y="1041"/>
      <point x="698" y="1051"/>
      <point x="695" y="1058" type="curve" smooth="yes"/>
      <point x="646" y="1151"/>
      <point x="545" y="1216"/>
      <point x="428" y="1216" type="curve" smooth="yes"/>
      <point x="235" y="1216"/>
      <point x="78" y="1059"/>
      <point x="78" y="867" type="curve" smooth="yes"/>
      <point x="78" y="328" type="line" smooth="yes"/>
      <point x="78" y="135"/>
      <point x="235" y="-21"/>
      <point x="428" y="-21" type="curve" smooth="yes"/>
      <point x="545" y="-21"/>
      <point x="647" y="44"/>
      <point x="695" y="137" type="curve" smooth="yes"/>
      <point x="698" y="145"/>
      <point x="695" y="154"/>
      <point x="688" y="158" type="curve" smooth="yes"/>
      <point x="680" y="161"/>
      <point x="671" y="158"/>
      <point x="667" y="150" type="curve" smooth="yes"/>
      <point x="623" y="69"/>
      <point x="532" y="11"/>
      <point x="428" y="11" type="curve" smooth="yes"/>
      <point x="253" y="11"/>
      <point x="110" y="153"/>
      <point x="110" y="328" type="curve" smooth="yes"/>
      <point x="110" y="867" type="line" smooth="yes"/>
      <point x="110" y="1041"/>
      <point x="253" y="1184"/>
      <point x="428" y="1184" type="curve" smooth="yes"/>
      <point x="531" y="1184"/>
      <point x="622" y="1126"/>
    </contour>
  </outline>
</glyph>
<glyph name="caron" format="1">
  <advance width="648.0"/>
  <unicode hex="02C7"/>
  <outline>
    <contour>
      <point x="425" y="1356" type="line"/>
      <point x="431" y="1362"/>
      <point x="431" y="1372"/>
      <point x="425" y="1378" type="curve" smooth="yes"/>
      <point x="419" y="1384"/>
      <point x="409" y="1384"/>
      <point x="403" y="1378" type="curve" smooth="yes"/>
      <point x="301" y="1275" type="line"/>
      <point x="323" y="1275" type="line"/>
      <point x="221" y="1378" type="line" smooth="yes"/>
      <point x="215" y="1384"/>
      <point x="205" y="1384"/>
      <point x="199" y="1378" type="curve" smooth="yes"/>
      <point x="193" y="1372"/>
      <point x="193" y="1362"/>
      <point x="199" y="1356" type="curve" smooth="yes"/>
      <point x="301" y="1253" type="line" smooth="yes"/>
      <point x="307" y="1246"/>
      <point x="317" y="1246"/>
      <point x="323" y="1253" type="curve" smooth="yes"/>
    </contour>
  </outline>
</glyph>
<glyph name="breve" format="1">
  <advance width="292.0"/>
  <unicode hex="02D8"/>
  <outline>
    <contour>
      <point x="109" y="1328" type="curve" smooth="yes"/>
      <point x="109" y="1337"/>
      <point x="102" y="1344"/>
      <point x="93" y="1344" type="curve" smooth="yes"/>
      <point x="84" y="1344"/>
      <point x="77" y="1337"/>
      <point x="77" y="1328" type="curve" smooth="yes"/>
      <point x="77" y="1290"/>
      <point x="108" y="1259"/>
      <point x="146" y="1259" type="curve" smooth="yes"/>
      <point x="185" y="1259"/>
      <point x="215" y="1290"/>
      <point x="215" y="1328" type="curve" smooth="yes"/>
      <point x="215" y="1337"/>
      <point x="208" y="1344"/>
      <point x="199" y="1344" type="curve" smooth="yes"/>
      <point x="190" y="1344"/>
      <point x="183" y="1337"/>
      <point x="183" y="1328" type="curve" smooth="yes"/>
      <point x="183" y="1308"/>
      <point x="167" y="1291"/>
      <point x="146" y="1291" type="curve" smooth="yes"/>
      <point x="126" y="1291"/>
      <point x="109" y="1308"/>
    </contour>
  </outline>
</glyph>
<glyph name="tilde" format="1">
  <advance width="380.0"/>
  <unicode hex="02DC"/>
  <outline>
    <contour>
      <point x="83" y="1315" type="curve" smooth="yes"/>
      <point x="82" y="1306"/>
      <point x="88" y="1298"/>
      <point x="96" y="1296" type="curve" smooth="yes"/>
      <point x="105" y="1295"/>
      <point x="113" y="1301"/>
      <point x="115" y="1309" type="curve" smooth="yes"/>
      <point x="117" y="1325"/>
      <point x="131" y="1337"/>
      <point x="148" y="1337" type="curve" smooth="yes"/>
      <point x="160" y="1337"/>
      <point x="171" y="1330"/>
      <point x="177" y="1320" type="curve" smooth="yes"/>
      <point x="189" y="1300"/>
      <point x="210" y="1287"/>
      <point x="234" y="1287" type="curve" smooth="yes"/>
      <point x="267" y="1287"/>
      <point x="293" y="1311"/>
      <point x="299" y="1341" type="curve" smooth="yes"/>
      <point x="300" y="1350"/>
      <point x="294" y="1358"/>
      <point x="286" y="1360" type="curve" smooth="yes"/>
      <point x="277" y="1361"/>
      <point x="269" y="1355"/>
      <point x="267" y="1347" type="curve" smooth="yes"/>
      <point x="265" y="1331"/>
      <point x="251" y="1319"/>
      <point x="234" y="1319" type="curve" smooth="yes"/>
      <point x="222" y="1319"/>
      <point x="211" y="1326"/>
      <point x="205" y="1336" type="curve" smooth="yes"/>
      <point x="193" y="1356"/>
      <point x="172" y="1369"/>
      <point x="148" y="1369" type="curve" smooth="yes"/>
      <point x="115" y="1369"/>
      <point x="89" y="1345"/>
    </contour>
  </outline>
</glyph>
<glyph name="Delta" format="1">
  <advance width="843.0"/>
  <unicode hex="0394"/>
  <outline>
    <contour>
      <point x="783" y="32" type="line"/>
      <point x="768" y="10" type="line"/>
      <point x="424" y="860" type="line"/>
      <point x="454" y="860" type="line"/>
      <point x="111" y="10" type="line"/>
      <point x="96" y="32" type="line"/>
    </contour>
    <contour>
      <point x="783" y="0" type="curve" smooth="yes"/>
      <point x="96" y="0" type="line" smooth="yes"/>
      <point x="83" y="0"/>
      <point x="76" y="10"/>
      <point x="81" y="22" type="curve" smooth="yes"/>
      <point x="424" y="872" type="line" smooth="yes"/>
      <point x="432" y="892"/>
      <point x="446" y="892"/>
      <point x="454" y="872" type="curve" smooth="yes"/>
      <point x="798" y="22" type="line" smooth="yes"/>
      <point x="803" y="10"/>
      <point x="796" y="0"/>
    </contour>
  </outline>
</glyph>
<glyph name="mu" format="1">
  <advance width="776"/>
  <unicode hex="03BC"/>
  <outline>
    <contour>
      <point x="80" y="-298" type="line"/>
      <point x="80" y="-307"/>
      <point x="87" y="-314"/>
      <point x="96" y="-314" type="curve" smooth="yes"/>
      <point x="105" y="-314"/>
      <point x="112" y="-307"/>
      <point x="112" y="-298" type="curve" smooth="yes"/>
      <point x="112" y="863" type="line" smooth="yes"/>
      <point x="112" y="872"/>
      <point x="105" y="879"/>
      <point x="96" y="879" type="curve" smooth="yes"/>
      <point x="87" y="879"/>
      <point x="80" y="872"/>
      <point x="80" y="863" type="curve" smooth="yes"/>
    </contour>
    <contour>
      <point x="696" y="863" type="line"/>
      <point x="696" y="872"/>
      <point x="689" y="879"/>
      <point x="680" y="879" type="curve" smooth="yes"/>
      <point x="671" y="879"/>
      <point x="664" y="872"/>
      <point x="664" y="863" type="curve" smooth="yes"/>
      <point x="664" y="292" type="line" smooth="yes"/>
      <point x="664" y="140"/>
      <point x="540" y="16"/>
      <point x="388" y="16" type="curve" smooth="yes"/>
      <point x="258" y="16"/>
      <point x="149" y="106"/>
      <point x="120" y="228" type="curve" smooth="yes"/>
      <point x="118" y="236"/>
      <point x="109" y="241"/>
      <point x="100" y="239" type="curve" smooth="yes"/>
      <point x="92" y="237"/>
      <point x="87" y="228"/>
      <point x="89" y="219" type="curve" smooth="yes"/>
      <point x="122" y="85"/>
      <point x="243" y="-16"/>
      <point x="388" y="-16" type="curve" smooth="yes"/>
      <point x="558" y="-16"/>
      <point x="696" y="122"/>
      <point x="696" y="292" type="curve" smooth="yes"/>
    </contour>
  </outline>
</glyph>
<glyph name="pi" format="1">
  <advance width="768.0"/>
  <unicode hex="03C0"/>
  <outline>
    <contour>
      <point x="672" y="852" type="line"/>
      <point x="681" y="852"/>
      <point x="688" y="859"/>
      <point x="688" y="868" type="curve" smooth="yes"/>
      <point x="688" y="877"/>
      <point x="681" y="884"/>
      <point x="672" y="884" type="curve" smooth="yes"/>
      <point x="96" y="884" type="line" smooth="yes"/>
      <point x="87" y="884"/>
      <point x="80" y="877"/>
      <point x="80" y="868" type="curve" smooth="yes"/>
      <point x="80" y="859"/>
      <point x="87" y="852"/>
      <point x="96" y="852" type="curve" smooth="yes"/>
    </contour>
    <contour>
      <point x="192" y="16" type="line"/>
      <point x="192" y="7"/>
      <point x="199" y="0"/>
      <point x="208" y="0" type="curve" smooth="yes"/>
      <point x="217" y="0"/>
      <point x="224" y="7"/>
      <point x="224" y="16" type="curve" smooth="yes"/>
      <point x="224" y="862" type="line" smooth="yes"/>
      <point x="224" y="871"/>
      <point x="217" y="878"/>
      <point x="208" y="878" type="curve" smooth="yes"/>
      <point x="199" y="878"/>
      <point x="192" y="871"/>
      <point x="192" y="862" type="curve" smooth="yes"/>
    </contour>
    <contour>
      <point x="490" y="862" type="line"/>
      <point x="490" y="871"/>
      <point x="483" y="878"/>
      <point x="474" y="878" type="curve" smooth="yes"/>
      <point x="465" y="878"/>
      <point x="458" y="871"/>
      <point x="458" y="862" type="curve" smooth="yes"/>
      <point x="458" y="198" type="line" smooth="yes"/>
      <point x="458" y="80"/>
      <point x="554" y="-16"/>
      <point x="672" y="-16" type="curve" smooth="yes"/>
      <point x="681" y="-16"/>
      <point x="688" y="-9"/>
      <point x="688" y="0" type="curve" smooth="yes"/>
      <point x="688" y="9"/>
      <point x="681" y="16"/>
      <point x="672" y="16" type="curve" smooth="yes"/>
      <point x="572" y="16"/>
      <point x="490" y="98"/>
      <point x="490" y="198" type="curve" smooth="yes"/>
    </contour>
  </outline>
</glyph>
<glyph name="endash" format="1">
  <advance width="1000.0"/>
  <unicode hex="2013"/>
  <outline>
    <contour>
      <point x="96" y="450" type="line"/>
      <point x="87" y="450"/>
      <point x="80" y="443"/>
      <point x="80" y="434" type="curve" smooth="yes"/>
      <point x="80" y="425"/>
      <point x="87" y="418"/>
      <point x="96" y="418" type="curve" smooth="yes"/>
      <point x="904" y="418" type="line" smooth="yes"/>
      <point x="913" y="418"/>
      <point x="920" y="425"/>
      <point x="920" y="434" type="curve" smooth="yes"/>
      <point x="920" y="443"/>
      <point x="913" y="450"/>
      <point x="904" y="450" type="curve" smooth="yes"/>
    </contour>
  </outline>
</glyph>
<glyph name="emdash" format="1">
  <advance width="2000.0"/>
  <unicode hex="2014"/>
  <outline>
    <contour>
      <point x="96" y="450" type="line"/>
      <point x="87" y="450"/>
      <point x="80" y="443"/>
      <point x="80" y="434" type="curve" smooth="yes"/>
      <point x="80" y="425"/>
      <point x="87" y="418"/>
      <point x="96" y="418" type="curve" smooth="yes"/>
      <point x="1904" y="418" type="line" smooth="yes"/>
      <point x="1913" y="418"/>
      <point x="1920" y="425"/>
      <point x="1920" y="434" type="curve" smooth="yes"/>
      <point x="1920" y="443"/>
      <point x="1913" y="450"/>
      <point x="1904" y="450" type="curve" smooth="yes"/>
    </contour>
  </outline>
</glyph>
<glyph name="dagger" format="1">
  <advance width="612.0"/>
  <unicode hex="2020"/>
  <outline>
    <contour>
      <point x="303" y="16" type="line"/>
      <point x="303" y="7"/>
      <point x="310" y="0"/>
      <point x="319" y="0" type="curve" smooth="yes"/>
      <point x="328" y="0"/>
      <point x="335" y="7"/>
      <point x="335" y="16" type="curve" smooth="yes"/>
      <point x="335" y="1184" type="line" smooth="yes"/>
      <point x="335" y="1193"/>
      <point x="328" y="1200"/>
      <point x="319" y="1200" type="curve" smooth="yes"/>
      <point x="310" y="1200"/>
      <point x="303" y="1193"/>
      <point x="303" y="1184" type="curve" smooth="yes"/>
    </contour>
    <contour>
      <point x="96" y="977" type="line"/>
      <point x="87" y="977"/>
      <point x="80" y="970"/>
      <point x="80" y="961" type="curve" smooth="yes"/>
      <point x="80" y="952"/>
      <point x="87" y="945"/>
      <point x="96" y="945" type="curve" smooth="yes"/>
      <point x="543" y="945" type="line" smooth="yes"/>
      <point x="552" y="945"/>
      <point x="559" y="952"/>
      <point x="559" y="961" type="curve" smooth="yes"/>
      <point x="559" y="970"/>
      <point x="552" y="977"/>
      <point x="543" y="977" type="curve" smooth="yes"/>
    </contour>
  </outline>
</glyph>
<glyph name="daggerdbl" format="1">
  <advance width="612.0"/>
  <unicode hex="2021"/>
  <outline>
    <contour>
      <point x="303" y="16" type="line"/>
      <point x="303" y="7"/>
      <point x="310" y="0"/>
      <point x="319" y="0" type="curve" smooth="yes"/>
      <point x="328" y="0"/>
      <point x="335" y="7"/>
      <point x="335" y="16" type="curve" smooth="yes"/>
      <point x="335" y="1184" type="line" smooth="yes"/>
      <point x="335" y="1193"/>
      <point x="328" y="1200"/>
      <point x="319" y="1200" type="curve" smooth="yes"/>
      <point x="310" y="1200"/>
      <point x="303" y="1193"/>
      <point x="303" y="1184" type="curve" smooth="yes"/>
    </contour>
    <contour>
      <point x="96" y="977" type="line"/>
      <point x="87" y="977"/>
      <point x="80" y="970"/>
      <point x="80" y="961" type="curve" smooth="yes"/>
      <point x="80" y="952"/>
      <point x="87" y="945"/>
      <point x="96" y="945" type="curve" smooth="yes"/>
      <point x="543" y="945" type="line" smooth="yes"/>
      <point x="552" y="945"/>
      <point x="559" y="952"/>
      <point x="559" y="961" type="curve" smooth="yes"/>
      <point x="559" y="970"/>
      <point x="552" y="977"/>
      <point x="543" y="977" type="curve" smooth="yes"/>
    </contour>
    <contour>
      <point x="96" y="735" type="line"/>
      <point x="87" y="735"/>
      <point x="80" y="728"/>
      <point x="80" y="719" type="curve" smooth="yes"/>
      <point x="80" y="710"/>
      <point x="87" y="703"/>
      <point x="96" y="703" type="curve" smooth="yes"/>
      <point x="543" y="703" type="line" smooth="yes"/>
      <point x="552" y="703"/>
      <point x="559" y="710"/>
      <point x="559" y="719" type="curve" smooth="yes"/>
      <point x="559" y="728"/>
      <point x="552" y="735"/>
      <point x="543" y="735" type="curve" smooth="yes"/>
    </contour>
  </outline>
</glyph>
<glyph name="perthousand" format="1">
  <advance width="1078.0"/>
  <unicode hex="2030"/>
  <outline>
    <contour>
      <point x="220" y="477" type="curve" smooth="yes"/>
      <point x="297" y="477"/>
      <point x="360" y="540"/>
      <point x="360" y="617" type="curve" smooth="yes"/>
      <point x="360" y="694"/>
      <point x="297" y="756"/>
      <point x="220" y="756" type="curve" smooth="yes"/>
      <point x="143" y="756"/>
      <point x="80" y="694"/>
      <point x="80" y="617" type="curve" smooth="yes"/>
      <point x="80" y="540"/>
      <point x="143" y="477"/>
    </contour>
    <contour>
      <point x="220" y="509" type="curve" smooth="yes"/>
      <point x="161" y="509"/>
      <point x="112" y="558"/>
      <point x="112" y="617" type="curve" smooth="yes"/>
      <point x="112" y="676"/>
      <point x="161" y="724"/>
      <point x="220" y="724" type="curve" smooth="yes"/>
      <point x="279" y="724"/>
      <point x="328" y="676"/>
      <point x="328" y="617" type="curve" smooth="yes"/>
      <point x="328" y="558"/>
      <point x="279" y="509"/>
    </contour>
    <contour>
      <point x="645" y="738" type="line"/>
      <point x="650" y="744"/>
      <point x="648" y="755"/>
      <point x="641" y="760" type="curve" smooth="yes"/>
      <point x="635" y="765"/>
      <point x="624" y="763"/>
      <point x="619" y="756" type="curve" smooth="yes"/>
      <point x="83" y="25" type="line" smooth="yes"/>
      <point x="78" y="19"/>
      <point x="80" y="8"/>
      <point x="87" y="3" type="curve" smooth="yes"/>
      <point x="93" y="-2"/>
      <point x="104" y="0"/>
      <point x="109" y="7" type="curve" smooth="yes"/>
    </contour>
    <contour>
      <point x="508" y="-11" type="curve" smooth="yes"/>
      <point x="585" y="-11"/>
      <point x="648" y="52"/>
      <point x="648" y="129" type="curve" smooth="yes"/>
      <point x="648" y="206"/>
      <point x="585" y="269"/>
      <point x="508" y="269" type="curve" smooth="yes"/>
      <point x="431" y="269"/>
      <point x="369" y="206"/>
      <point x="369" y="129" type="curve" smooth="yes"/>
      <point x="369" y="52"/>
      <point x="431" y="-11"/>
    </contour>
    <contour>
      <point x="508" y="21" type="curve" smooth="yes"/>
      <point x="449" y="21"/>
      <point x="401" y="70"/>
      <point x="401" y="129" type="curve" smooth="yes"/>
      <point x="401" y="188"/>
      <point x="449" y="237"/>
      <point x="508" y="237" type="curve" smooth="yes"/>
      <point x="567" y="237"/>
      <point x="616" y="188"/>
      <point x="616" y="129" type="curve" smooth="yes"/>
      <point x="616" y="70"/>
      <point x="567" y="21"/>
    </contour>
    <contour>
      <point x="858" y="-11" type="curve" smooth="yes"/>
      <point x="935" y="-11"/>
      <point x="998" y="52"/>
      <point x="998" y="129" type="curve" smooth="yes"/>
      <point x="998" y="206"/>
      <point x="935" y="269"/>
      <point x="858" y="269" type="curve" smooth="yes"/>
      <point x="781" y="269"/>
      <point x="719" y="206"/>
      <point x="719" y="129" type="curve" smooth="yes"/>
      <point x="719" y="52"/>
      <point x="781" y="-11"/>
    </contour>
    <contour>
      <point x="858" y="21" type="curve" smooth="yes"/>
      <point x="799" y="21"/>
      <point x="751" y="70"/>
      <point x="751" y="129" type="curve" smooth="yes"/>
      <point x="751" y="188"/>
      <point x="799" y="237"/>
      <point x="858" y="237" type="curve" smooth="yes"/>
      <point x="917" y="237"/>
      <point x="966" y="188"/>
      <point x="966" y="129" type="curve" smooth="yes"/>
      <point x="966" y="70"/>
      <point x="917" y="21"/>
    </contour>
  </outline>
</glyph>
<glyph name="Euro" format="1">
  <advance width="851.0"/>
  <unicode hex="20AC"/>
  <outline>
    <contour>
      <point x="747" y="993" type="curve" smooth="yes"/>
      <point x="749" y="985"/>
      <point x="757" y="980"/>
      <point x="765" y="982" type="curve" smooth="yes"/>
      <point x="773" y="984"/>
      <point x="778" y="992"/>
      <point x="776" y="1001" type="curve" smooth="yes"/>
      <point x="740" y="1124"/>
      <point x="620" y="1216"/>
      <point x="479" y="1216" type="curve" smooth="yes"/>
      <point x="286" y="1216"/>
      <point x="130" y="1059"/>
      <point x="130" y="867" type="curve" smooth="yes"/>
      <point x="130" y="328" type="line" smooth="yes"/>
      <point x="130" y="135"/>
      <point x="286" y="-21"/>
      <point x="479" y="-21" type="curve" smooth="yes"/>
      <point x="621" y="-21"/>
      <point x="740" y="71"/>
      <point x="776" y="194" type="curve" smooth="yes"/>
      <point x="778" y="203"/>
      <point x="773" y="211"/>
      <point x="765" y="213" type="curve" smooth="yes"/>
      <point x="757" y="215"/>
      <point x="749" y="210"/>
      <point x="747" y="202" type="curve" smooth="yes"/>
      <point x="713" y="93"/>
      <point x="605" y="11"/>
      <point x="479" y="11" type="curve" smooth="yes"/>
      <point x="304" y="11"/>
      <point x="162" y="153"/>
      <point x="162" y="328" type="curve" smooth="yes"/>
      <point x="162" y="867" type="line" smooth="yes"/>
      <point x="162" y="1041"/>
      <point x="304" y="1184"/>
      <point x="479" y="1184" type="curve" smooth="yes"/>
      <point x="605" y="1184"/>
      <point x="713" y="1102"/>
    </contour>
    <contour>
      <point x="391" y="654" type="line"/>
      <point x="400" y="654"/>
      <point x="407" y="661"/>
      <point x="407" y="670" type="curve" smooth="yes"/>
      <point x="407" y="679"/>
      <point x="400" y="686"/>
      <point x="391" y="686" type="curve" smooth="yes"/>
      <point x="76" y="686" type="line" smooth="yes"/>
      <point x="67" y="686"/>
      <point x="60" y="679"/>
      <point x="60" y="670" type="curve" smooth="yes"/>
      <point x="60" y="661"/>
      <point x="67" y="654"/>
      <point x="76" y="654" type="curve" smooth="yes"/>
    </contour>
    <contour>
      <point x="391" y="574" type="line"/>
      <point x="400" y="574"/>
      <point x="407" y="581"/>
      <point x="407" y="590" type="curve" smooth="yes"/>
      <point x="407" y="599"/>
      <point x="400" y="606"/>
      <point x="391" y="606" type="curve" smooth="yes"/>
      <point x="76" y="606" type="line" smooth="yes"/>
      <point x="67" y="606"/>
      <point x="60" y="599"/>
      <point x="60" y="590" type="curve" smooth="yes"/>
      <point x="60" y="581"/>
      <point x="67" y="574"/>
      <point x="76" y="574" type="curve" smooth="yes"/>
    </contour>
  </outline>
</glyph>
<glyph name="summation" format="1">
  <advance width="864.0"/>
  <unicode hex="2211"/>
  <outline>
    <contour>
      <point x="768" y="1168" type="line"/>
      <point x="777" y="1168"/>
      <point x="784" y="1175"/>
      <point x="784" y="1184" type="curve" smooth="yes"/>
      <point x="784" y="1193"/>
      <point x="777" y="1200"/>
      <point x="768" y="1200" type="curve" smooth="yes"/>
      <point x="96" y="1200" type="line" smooth="yes"/>
      <point x="78" y="1200"/>
      <point x="73" y="1189"/>
      <point x="83" y="1175" type="curve" smooth="yes"/>
      <point x="512" y="590" type="line"/>
      <point x="512" y="608" type="line"/>
      <point x="83" y="25" type="line" smooth="yes"/>
      <point x="73" y="11"/>
      <point x="78" y="0"/>
      <point x="96" y="0" type="curve" smooth="yes"/>
      <point x="768" y="0" type="line" smooth="yes"/>
      <point x="777" y="0"/>
      <point x="784" y="7"/>
      <point x="784" y="16" type="curve" smooth="yes"/>
      <point x="784" y="25"/>
      <point x="777" y="32"/>
      <point x="768" y="32" type="curve" smooth="yes"/>
      <point x="96" y="32" type="line"/>
      <point x="109" y="7" type="line"/>
      <point x="538" y="590" type="line" smooth="yes"/>
      <point x="542" y="594"/>
      <point x="542" y="603"/>
      <point x="538" y="608" type="curve" smooth="yes"/>
      <point x="109" y="1193" type="line"/>
      <point x="96" y="1168" type="line"/>
    </contour>
  </outline>
</glyph>
<glyph name="minus" format="1">
  <advance width="725"/>
  <unicode hex="2212"/>
  <outline>
    <contour>
      <point x="586" y="410" type="line"/>
      <point x="594" y="410"/>
      <point x="602" y="418"/>
      <point x="602" y="426" type="curve" smooth="yes"/>
      <point x="602" y="436"/>
      <point x="594" y="442"/>
      <point x="586" y="442" type="curve"/>
      <point x="139" y="442" type="line" smooth="yes"/>
      <point x="131" y="442"/>
      <point x="123" y="436"/>
      <point x="123" y="426" type="curve" smooth="yes"/>
      <point x="123" y="418"/>
      <point x="131" y="410"/>
      <point x="139" y="410" type="curve"/>
    </contour>
  </outline>
</glyph>
<glyph name="infinity" format="1">
  <advance width="1513"/>
  <unicode hex="221E"/>
  <outline>
    <contour>
      <point x="787" y="644" type="curve" smooth="yes"/>
      <point x="781" y="637"/>
      <point x="781" y="627"/>
      <point x="788" y="622" type="curve" smooth="yes"/>
      <point x="795" y="616"/>
      <point x="805" y="616"/>
      <point x="810" y="623" type="curve" smooth="yes"/>
      <point x="861" y="679"/>
      <point x="933" y="712"/>
      <point x="1012" y="712" type="curve" smooth="yes"/>
      <point x="1059" y="712" type="line" smooth="yes"/>
      <point x="1210" y="712"/>
      <point x="1334" y="587"/>
      <point x="1334" y="436" type="curve" smooth="yes"/>
      <point x="1334" y="285"/>
      <point x="1210" y="161"/>
      <point x="1059" y="161" type="curve" smooth="yes"/>
      <point x="1032" y="161" type="line" smooth="yes"/>
      <point x="880" y="161"/>
      <point x="765" y="248"/>
      <point x="737" y="438" type="curve" smooth="yes"/>
      <point x="705" y="648"/>
      <point x="578" y="744"/>
      <point x="409" y="744" type="curve" smooth="yes"/>
      <point x="383" y="744" type="line" smooth="yes"/>
      <point x="213" y="744"/>
      <point x="75" y="605"/>
      <point x="75" y="436" type="curve" smooth="yes"/>
      <point x="75" y="267"/>
      <point x="213" y="129"/>
      <point x="383" y="129" type="curve" smooth="yes"/>
      <point x="429" y="129" type="line" smooth="yes"/>
      <point x="520" y="129"/>
      <point x="602" y="169"/>
      <point x="657" y="231" type="curve" smooth="yes"/>
      <point x="663" y="238"/>
      <point x="662" y="248"/>
      <point x="656" y="253" type="curve" smooth="yes"/>
      <point x="649" y="259"/>
      <point x="639" y="259"/>
      <point x="634" y="252" type="curve" smooth="yes"/>
      <point x="583" y="197"/>
      <point x="510" y="161"/>
      <point x="429" y="161" type="curve" smooth="yes"/>
      <point x="383" y="161" type="line" smooth="yes"/>
      <point x="231" y="161"/>
      <point x="107" y="285"/>
      <point x="107" y="436" type="curve" smooth="yes"/>
      <point x="107" y="587"/>
      <point x="231" y="712"/>
      <point x="383" y="712" type="curve" smooth="yes"/>
      <point x="409" y="712" type="line" smooth="yes"/>
      <point x="562" y="712"/>
      <point x="676" y="624"/>
      <point x="705" y="434" type="curve" smooth="yes"/>
      <point x="736" y="224"/>
      <point x="864" y="129"/>
      <point x="1032" y="129" type="curve" smooth="yes"/>
      <point x="1059" y="129" type="line" smooth="yes"/>
      <point x="1228" y="129"/>
      <point x="1366" y="267"/>
      <point x="1366" y="436" type="curve" smooth="yes"/>
      <point x="1366" y="605"/>
      <point x="1228" y="744"/>
      <point x="1059" y="744" type="curve" smooth="yes"/>
      <point x="1012" y="744" type="line" smooth="yes"/>
      <point x="924" y="744"/>
      <point x="843" y="707"/>
    </contour>
  </outline>
</glyph>
<glyph name="approxequal" format="1">
  <advance width="727"/>
  <unicode hex="2248"/>
  <outline>
    <contour>
      <point x="599" y="532" type="curve" smooth="yes"/>
      <point x="605" y="538"/>
      <point x="605" y="548"/>
      <point x="599" y="554" type="curve" smooth="yes"/>
      <point x="593" y="560"/>
      <point x="583" y="560"/>
      <point x="577" y="554" type="curve" smooth="yes"/>
      <point x="521" y="499"/>
      <point x="430" y="498"/>
      <point x="374" y="554" type="curve" smooth="yes"/>
      <point x="307" y="622"/>
      <point x="196" y="623"/>
      <point x="128" y="554" type="curve" smooth="yes"/>
      <point x="122" y="548"/>
      <point x="122" y="538"/>
      <point x="128" y="532" type="curve" smooth="yes"/>
      <point x="134" y="526"/>
      <point x="144" y="526"/>
      <point x="150" y="532" type="curve" smooth="yes"/>
      <point x="206" y="587"/>
      <point x="297" y="586"/>
      <point x="352" y="532" type="curve" smooth="yes"/>
      <point x="420" y="463"/>
      <point x="531" y="463"/>
    </contour>
    <contour>
      <point x="599" y="292" type="curve" smooth="yes"/>
      <point x="605" y="298"/>
      <point x="605" y="308"/>
      <point x="599" y="314" type="curve" smooth="yes"/>
      <point x="593" y="320"/>
      <point x="583" y="320"/>
      <point x="577" y="314" type="curve" smooth="yes"/>
      <point x="521" y="259"/>
      <point x="430" y="258"/>
      <point x="374" y="314" type="curve" smooth="yes"/>
      <point x="307" y="382"/>
      <point x="196" y="383"/>
      <point x="128" y="314" type="curve" smooth="yes"/>
      <point x="122" y="308"/>
      <point x="122" y="298"/>
      <point x="128" y="292" type="curve" smooth="yes"/>
      <point x="134" y="286"/>
      <point x="144" y="286"/>
      <point x="150" y="292" type="curve" smooth="yes"/>
      <point x="206" y="347"/>
      <point x="297" y="346"/>
      <point x="352" y="292" type="curve" smooth="yes"/>
      <point x="420" y="223"/>
      <point x="531" y="223"/>
    </contour>
  </outline>
</glyph>
<glyph name="lessequal" format="1">
  <advance width="728.0"/>
  <unicode hex="2264"/>
  <outline>
    <contour>
      <point x="579" y="72" type="line"/>
      <point x="586" y="66"/>
      <point x="596" y="67"/>
      <point x="601" y="74" type="curve" smooth="yes"/>
      <point x="607" y="81"/>
      <point x="605" y="91"/>
      <point x="598" y="96" type="curve" smooth="yes"/>
      <point x="152" y="438" type="line"/>
      <point x="152" y="414" type="line"/>
      <point x="598" y="754" type="line" smooth="yes"/>
      <point x="605" y="759"/>
      <point x="607" y="769"/>
      <point x="601" y="776" type="curve" smooth="yes"/>
      <point x="596" y="783"/>
      <point x="586" y="784"/>
      <point x="579" y="778" type="curve" smooth="yes"/>
      <point x="133" y="438" type="line" smooth="yes"/>
      <point x="123" y="432"/>
      <point x="123" y="420"/>
      <point x="133" y="414" type="curve" smooth="yes"/>
    </contour>
    <contour>
      <point x="586" y="-16" type="line"/>
      <point x="595" y="-16"/>
      <point x="602" y="-9"/>
      <point x="602" y="0" type="curve" smooth="yes"/>
      <point x="602" y="9"/>
      <point x="595" y="16"/>
      <point x="586" y="16" type="curve" smooth="yes"/>
      <point x="139" y="16" type="line" smooth="yes"/>
      <point x="130" y="16"/>
      <point x="123" y="9"/>
      <point x="123" y="0" type="curve" smooth="yes"/>
      <point x="123" y="-9"/>
      <point x="130" y="-16"/>
      <point x="139" y="-16" type="curve" smooth="yes"/>
    </contour>
  </outline>
</glyph>
<glyph name="eight.sup" format="1">
  <advance width="463"/>
  <outline>
    <contour>
      <point x="208" y="922" type="curve" smooth="yes"/>
      <point x="217" y="923"/>
      <point x="224" y="931"/>
      <point x="223" y="939" type="curve" smooth="yes"/>
      <point x="222" y="948"/>
      <point x="214" y="955"/>
      <point x="205" y="954" type="curve" smooth="yes"/>
      <point x="135" y="946"/>
      <point x="80" y="886"/>
      <point x="80" y="814" type="curve" smooth="yes"/>
      <point x="80" y="721" type="line" smooth="yes"/>
      <point x="80" y="644"/>
      <point x="143" y="581"/>
      <point x="220" y="581" type="curve" smooth="yes"/>
      <point x="245" y="581" type="line" smooth="yes"/>
      <point x="321" y="581"/>
      <point x="384" y="644"/>
      <point x="384" y="721" type="curve" smooth="yes"/>
      <point x="384" y="814" type="line" smooth="yes"/>
      <point x="384" y="892"/>
      <point x="321" y="954"/>
      <point x="245" y="954" type="curve" smooth="yes"/>
      <point x="220" y="954" type="line" smooth="yes"/>
      <point x="163" y="954"/>
      <point x="115" y="1001"/>
      <point x="115" y="1058" type="curve" smooth="yes"/>
      <point x="115" y="1093" type="line" smooth="yes"/>
      <point x="115" y="1151"/>
      <point x="163" y="1197"/>
      <point x="220" y="1197" type="curve" smooth="yes"/>
      <point x="245" y="1197" type="line" smooth="yes"/>
      <point x="301" y="1197"/>
      <point x="349" y="1151"/>
      <point x="349" y="1093" type="curve" smooth="yes"/>
      <point x="349" y="1058" type="line" smooth="yes"/>
      <point x="349" y="1005"/>
      <point x="308" y="961"/>
      <point x="258" y="955" type="curve" smooth="yes"/>
      <point x="249" y="954"/>
      <point x="243" y="946"/>
      <point x="244" y="937" type="curve" smooth="yes"/>
      <point x="245" y="929"/>
      <point x="253" y="922"/>
      <point x="262" y="923" type="curve" smooth="yes"/>
      <point x="328" y="931"/>
      <point x="381" y="989"/>
      <point x="381" y="1058" type="curve" smooth="yes"/>
      <point x="381" y="1093" type="line" smooth="yes"/>
      <point x="381" y="1169"/>
      <point x="319" y="1229"/>
      <point x="245" y="1229" type="curve" smooth="yes"/>
      <point x="220" y="1229" type="line" smooth="yes"/>
      <point x="145" y="1229"/>
      <point x="83" y="1169"/>
      <point x="83" y="1093" type="curve" smooth="yes"/>
      <point x="83" y="1058" type="line" smooth="yes"/>
      <point x="83" y="983"/>
      <point x="145" y="922"/>
      <point x="220" y="922" type="curve" smooth="yes"/>
      <point x="245" y="922" type="line" smooth="yes"/>
      <point x="303" y="922"/>
      <point x="352" y="874"/>
      <point x="352" y="814" type="curve" smooth="yes"/>
      <point x="352" y="721" type="line" smooth="yes"/>
      <point x="352" y="662"/>
      <point x="303" y="613"/>
      <point x="245" y="613" type="curve" smooth="yes"/>
      <point x="220" y="613" type="line" smooth="yes"/>
      <point x="161" y="613"/>
      <point x="112" y="662"/>
      <point x="112" y="721" type="curve" smooth="yes"/>
      <point x="112" y="814" type="line" smooth="yes"/>
      <point x="112" y="870"/>
      <point x="155" y="916"/>
    </contour>
  </outline>
</glyph>
<glyph name="five.oldstyle" format="1">
  <advance width="728.0"/>
  <outline>
    <contour>
      <point x="112" y="28" type="curve" smooth="yes"/>
      <point x="112" y="37"/>
      <point x="105" y="44"/>
      <point x="96" y="44" type="curve" smooth="yes"/>
      <point x="87" y="44"/>
      <point x="80" y="37"/>
      <point x="80" y="28" type="curve" smooth="yes"/>
      <point x="80" y="-128"/>
      <point x="207" y="-256"/>
      <point x="364" y="-256" type="curve" smooth="yes"/>
      <point x="520" y="-256"/>
      <point x="648" y="-128"/>
      <point x="648" y="28" type="curve" smooth="yes"/>
      <point x="648" y="191" type="line" smooth="yes"/>
      <point x="648" y="347"/>
      <point x="520" y="475"/>
      <point x="364" y="475" type="curve" smooth="yes"/>
      <point x="97" y="475" type="line"/>
      <point x="113" y="459" type="line"/>
      <point x="112" y="868" type="line"/>
      <point x="96" y="852" type="line"/>
      <point x="627" y="852" type="line" smooth="yes"/>
      <point x="636" y="852"/>
      <point x="643" y="859"/>
      <point x="643" y="868" type="curve" smooth="yes"/>
      <point x="643" y="877"/>
      <point x="636" y="884"/>
      <point x="627" y="884" type="curve" smooth="yes"/>
      <point x="96" y="884" type="line" smooth="yes"/>
      <point x="87" y="884"/>
      <point x="80" y="877"/>
      <point x="80" y="868" type="curve" smooth="yes"/>
      <point x="81" y="459" type="line" smooth="yes"/>
      <point x="81" y="450"/>
      <point x="88" y="443"/>
      <point x="97" y="443" type="curve" smooth="yes"/>
      <point x="364" y="443" type="line" smooth="yes"/>
      <point x="502" y="443"/>
      <point x="616" y="329"/>
      <point x="616" y="191" type="curve" smooth="yes"/>
      <point x="616" y="28" type="line" smooth="yes"/>
      <point x="616" y="-110"/>
      <point x="502" y="-224"/>
      <point x="364" y="-224" type="curve" smooth="yes"/>
      <point x="225" y="-224"/>
      <point x="112" y="-110"/>
    </contour>
  </outline>
</glyph>
<glyph name="one.sup" format="1">
  <advance width="464.0"/>
  <outline>
    <contour>
      <point x="216" y="612" type="line"/>
      <point x="216" y="603"/>
      <point x="223" y="596"/>
      <point x="232" y="596" type="curve" smooth="yes"/>
      <point x="241" y="596"/>
      <point x="248" y="603"/>
      <point x="248" y="612" type="curve" smooth="yes"/>
      <point x="248" y="1202" type="line" smooth="yes"/>
      <point x="248" y="1223"/>
      <point x="236" y="1228"/>
      <point x="221" y="1213" type="curve" smooth="yes"/>
      <point x="84" y="1076" type="line" smooth="yes"/>
      <point x="78" y="1070"/>
      <point x="78" y="1060"/>
      <point x="84" y="1054" type="curve" smooth="yes"/>
      <point x="90" y="1048"/>
      <point x="100" y="1048"/>
      <point x="106" y="1054" type="curve" smooth="yes"/>
      <point x="243" y="1191" type="line"/>
      <point x="216" y="1202" type="line"/>
    </contour>
    <contour>
      <point x="368" y="593" type="line"/>
      <point x="377" y="593"/>
      <point x="384" y="600"/>
      <point x="384" y="609" type="curve" smooth="yes"/>
      <point x="384" y="618"/>
      <point x="377" y="625"/>
      <point x="368" y="625" type="curve" smooth="yes"/>
      <point x="97" y="625" type="line" smooth="yes"/>
      <point x="88" y="625"/>
      <point x="81" y="618"/>
      <point x="81" y="609" type="curve" smooth="yes"/>
      <point x="81" y="600"/>
      <point x="88" y="593"/>
      <point x="97" y="593" type="curve" smooth="yes"/>
    </contour>
  </outline>
</glyph>
<glyph name="seven.oldstyle" format="1">
  <advance width="616.0"/>
  <outline>
    <contour>
      <point x="96" y="879" type="line"/>
      <point x="87" y="879"/>
      <point x="80" y="872"/>
      <point x="80" y="863" type="curve" smooth="yes"/>
      <point x="80" y="854"/>
      <point x="87" y="847"/>
      <point x="96" y="847" type="curve" smooth="yes"/>
      <point x="632" y="847" type="line"/>
      <point x="616" y="867" type="line"/>
      <point x="342" y="-301" type="line" smooth="yes"/>
      <point x="340" y="-310"/>
      <point x="346" y="-318"/>
      <point x="354" y="-321" type="curve" smooth="yes"/>
      <point x="362" y="-322"/>
      <point x="371" y="-317"/>
      <point x="373" y="-309" type="curve" smooth="yes"/>
      <point x="648" y="859" type="line" smooth="yes"/>
      <point x="650" y="871"/>
      <point x="643" y="879"/>
      <point x="632" y="879" type="curve" smooth="yes"/>
    </contour>
  </outline>
</glyph>
<glyph name="six.sup" format="1">
  <advance width="463"/>
  <outline>
    <contour>
      <point x="351" y="1080" type="curve" smooth="yes"/>
      <point x="351" y="1071"/>
      <point x="358" y="1064"/>
      <point x="367" y="1064" type="curve" smooth="yes"/>
      <point x="376" y="1064"/>
      <point x="383" y="1071"/>
      <point x="383" y="1080" type="curve" smooth="yes"/>
      <point x="383" y="1164"/>
      <point x="315" y="1232"/>
      <point x="232" y="1232" type="curve" smooth="yes"/>
      <point x="148" y="1232"/>
      <point x="80" y="1164"/>
      <point x="80" y="1080" type="curve" smooth="yes"/>
      <point x="80" y="735" type="line" smooth="yes"/>
      <point x="80" y="652"/>
      <point x="148" y="584"/>
      <point x="232" y="584" type="curve" smooth="yes"/>
      <point x="315" y="584"/>
      <point x="383" y="652"/>
      <point x="383" y="735" type="curve" smooth="yes"/>
      <point x="383" y="854" type="line" smooth="yes"/>
      <point x="383" y="938"/>
      <point x="315" y="1006"/>
      <point x="232" y="1006" type="curve" smooth="yes"/>
      <point x="151" y="1006"/>
      <point x="84" y="943"/>
      <point x="80" y="862" type="curve" smooth="yes"/>
      <point x="80" y="853"/>
      <point x="87" y="846"/>
      <point x="96" y="845" type="curve" smooth="yes"/>
      <point x="105" y="845"/>
      <point x="112" y="852"/>
      <point x="112" y="861" type="curve" smooth="yes"/>
      <point x="116" y="924"/>
      <point x="168" y="974"/>
      <point x="232" y="974" type="curve" smooth="yes"/>
      <point x="297" y="974"/>
      <point x="351" y="920"/>
      <point x="351" y="854" type="curve" smooth="yes"/>
      <point x="351" y="735" type="line" smooth="yes"/>
      <point x="351" y="670"/>
      <point x="297" y="616"/>
      <point x="232" y="616" type="curve" smooth="yes"/>
      <point x="166" y="616"/>
      <point x="112" y="670"/>
      <point x="112" y="735" type="curve" smooth="yes"/>
      <point x="112" y="1080" type="line" smooth="yes"/>
      <point x="112" y="1146"/>
      <point x="166" y="1200"/>
      <point x="232" y="1200" type="curve" smooth="yes"/>
      <point x="297" y="1200"/>
      <point x="351" y="1146"/>
    </contour>
  </outline>
</glyph>
<glyph name="three.oldstyle" format="1">
  <advance width="728.0"/>
  <outline>
    <contour>
      <point x="420" y="359" type="curve" smooth="yes"/>
      <point x="411" y="358"/>
      <point x="405" y="349"/>
      <point x="406" y="341" type="curve" smooth="yes"/>
      <point x="408" y="332"/>
      <point x="416" y="326"/>
      <point x="425" y="327" type="curve" smooth="yes"/>
      <point x="547" y="345"/>
      <point x="642" y="451"/>
      <point x="642" y="578" type="curve" smooth="yes"/>
      <point x="642" y="641" type="line" smooth="yes"/>
      <point x="642" y="781"/>
      <point x="528" y="895"/>
      <point x="388" y="895" type="curve" smooth="yes"/>
      <point x="340" y="895" type="line" smooth="yes"/>
      <point x="200" y="895"/>
      <point x="86" y="781"/>
      <point x="86" y="641" type="curve" smooth="yes"/>
      <point x="86" y="632"/>
      <point x="93" y="625"/>
      <point x="102" y="625" type="curve" smooth="yes"/>
      <point x="111" y="625"/>
      <point x="118" y="632"/>
      <point x="118" y="641" type="curve" smooth="yes"/>
      <point x="118" y="763"/>
      <point x="218" y="863"/>
      <point x="340" y="863" type="curve" smooth="yes"/>
      <point x="388" y="863" type="line" smooth="yes"/>
      <point x="510" y="863"/>
      <point x="610" y="763"/>
      <point x="610" y="641" type="curve" smooth="yes"/>
      <point x="610" y="578" type="line" smooth="yes"/>
      <point x="610" y="467"/>
      <point x="527" y="375"/>
    </contour>
    <contour>
      <point x="111" y="-98" type="curve" smooth="yes"/>
      <point x="111" y="-89"/>
      <point x="104" y="-82"/>
      <point x="95" y="-82" type="curve" smooth="yes"/>
      <point x="86" y="-82"/>
      <point x="79" y="-89"/>
      <point x="79" y="-98" type="curve" smooth="yes"/>
      <point x="79" y="-241"/>
      <point x="196" y="-358"/>
      <point x="340" y="-358" type="curve" smooth="yes"/>
      <point x="388" y="-358" type="line" smooth="yes"/>
      <point x="531" y="-358"/>
      <point x="649" y="-241"/>
      <point x="649" y="-98" type="curve" smooth="yes"/>
      <point x="649" y="96" type="line" smooth="yes"/>
      <point x="649" y="235"/>
      <point x="538" y="349"/>
      <point x="401" y="356" type="curve" smooth="yes"/>
      <point x="392" y="356"/>
      <point x="385" y="349"/>
      <point x="384" y="340" type="curve" smooth="yes"/>
      <point x="384" y="331"/>
      <point x="391" y="324"/>
      <point x="400" y="324" type="curve" smooth="yes"/>
      <point x="519" y="318"/>
      <point x="617" y="218"/>
      <point x="617" y="96" type="curve" smooth="yes"/>
      <point x="617" y="-98" type="line" smooth="yes"/>
      <point x="617" y="-223"/>
      <point x="513" y="-326"/>
      <point x="388" y="-326" type="curve" smooth="yes"/>
      <point x="340" y="-326" type="line" smooth="yes"/>
      <point x="214" y="-326"/>
      <point x="111" y="-223"/>
    </contour>
  </outline>
</glyph>
<glyph name="uni24C5" format="1">
  <advance width="782"/>
  <outline>
    <contour>
      <point x="236" y="239" type="line"/>
      <point x="236" y="230"/>
      <point x="243" y="223"/>
      <point x="252" y="223" type="curve" smooth="yes"/>
      <point x="261" y="223"/>
      <point x="268" y="230"/>
      <point x="268" y="239" type="curve" smooth="yes"/>
      <point x="268" y="968" type="line"/>
      <point x="252" y="952" type="line"/>
      <point x="477" y="952" type="line" smooth="yes"/>
      <point x="565" y="952"/>
      <point x="637" y="881"/>
      <point x="637" y="794" type="curve" smooth="yes"/>
      <point x="637" y="706" type="line" smooth="yes"/>
      <point x="637" y="619"/>
      <point x="565" y="547"/>
      <point x="477" y="547" type="curve" smooth="yes"/>
      <point x="264" y="547" type="line" smooth="yes"/>
      <point x="255" y="547"/>
      <point x="248" y="539"/>
      <point x="248" y="531" type="curve" smooth="yes"/>
      <point x="248" y="522"/>
      <point x="255" y="515"/>
      <point x="264" y="515" type="curve" smooth="yes"/>
      <point x="477" y="515" type="line" smooth="yes"/>
      <point x="583" y="515"/>
      <point x="669" y="601"/>
      <point x="669" y="706" type="curve" smooth="yes"/>
      <point x="669" y="794" type="line" smooth="yes"/>
      <point x="669" y="899"/>
      <point x="583" y="984"/>
      <point x="477" y="984" type="curve" smooth="yes"/>
      <point x="252" y="984" type="line" smooth="yes"/>
      <point x="243" y="984"/>
      <point x="236" y="977"/>
      <point x="236" y="968" type="curve" smooth="yes"/>
    </contour>
    <component base="O"/>
  </outline>
</glyph>
<glyph name="zero.oldstyle" format="1">
  <advance width="728.0"/>
  <outline>
    <contour>
      <point x="648" y="616" type="line"/>
      <point x="648" y="773"/>
      <point x="520" y="895"/>
      <point x="364" y="895" type="curve" smooth="yes"/>
      <point x="207" y="895"/>
      <point x="80" y="768"/>
      <point x="80" y="611" type="curve" smooth="yes"/>
      <point x="80" y="257" type="line" smooth="yes"/>
      <point x="80" y="101"/>
      <point x="207" y="-27"/>
      <point x="364" y="-27" type="curve" smooth="yes"/>
      <point x="520" y="-27"/>
      <point x="648" y="101"/>
      <point x="648" y="257" type="curve" smooth="yes"/>
    </contour>
    <contour>
      <point x="616" y="616" type="curve" smooth="yes"/>
      <point x="616" y="257" type="line" smooth="yes"/>
      <point x="616" y="119"/>
      <point x="502" y="5"/>
      <point x="364" y="5" type="curve" smooth="yes"/>
      <point x="225" y="5"/>
      <point x="112" y="119"/>
      <point x="112" y="257" type="curve" smooth="yes"/>
      <point x="112" y="611" type="line" smooth="yes"/>
      <point x="112" y="750"/>
      <point x="225" y="863"/>
      <point x="364" y="863" type="curve" smooth="yes"/>
      <point x="502" y="863"/>
      <point x="616" y="755"/>
    </contour>
    <contour>
      <point x="93" y="237" type="line"/>
      <point x="86" y="232"/>
      <point x="86" y="221"/>
      <point x="91" y="215" type="curve" smooth="yes"/>
      <point x="96" y="208"/>
      <point x="107" y="208"/>
      <point x="113" y="213" type="curve" smooth="yes"/>
      <point x="636" y="632" type="line" smooth="yes"/>
      <point x="642" y="637"/>
      <point x="643" y="648"/>
      <point x="637" y="654" type="curve" smooth="yes"/>
      <point x="632" y="661"/>
      <point x="621" y="661"/>
      <point x="615" y="656" type="curve" smooth="yes"/>
    </contour>
  </outline>
</glyph>
